<svg xmlns="http://www.w3.org/2000/svg" width="90" height="90" viewBox="0 0 90 90">
  <g fill="none" fill-rule="evenodd">
    <path fill="#7289da" d="M49.7166,47.2549 L65.1106,62.7739 C65.6646,63.3329 65.6626,64.2339 65.1066,64.7909 L64.0856,65.8119 C63.5276,66.3699 62.6226,66.3699 62.0646,65.8119 L46.6086,50.3559 C46.0496,49.7969 46.0496,48.8929 46.6086,48.3339 L47.6916,47.2509 C48.2516,46.6919 49.1586,46.6929 49.7166,47.2549 M55.9996,32.8799 L43.5766,45.3029 C43.0186,45.8609 42.1136,45.8609 41.5556,45.3029 L38.5236,42.2709 C37.9656,41.7119 37.9656,40.8079 38.5236,40.2489 L50.9456,27.8259 C51.5036,27.2689 52.4086,27.2689 52.9666,27.8259 L55.9996,30.8589 C56.5576,31.4169 56.5576,32.3209 55.9996,32.8799 M72.1686,16.7099 L71.1576,17.7209 C70.5996,18.2789 69.6946,18.2789 69.1366,17.7209 L66.1056,14.6899 C65.5476,14.1319 65.5476,13.2269 66.1056,12.6679 L67.1166,11.6569 C67.6746,11.0999 68.5796,11.0999 69.1376,11.6569 L72.1686,14.6889 C72.7266,15.2469 72.7266,16.1509 72.1686,16.7099 M55.0796,9.7279 L66.1056,20.7529 C66.6636,21.3109 66.6636,22.2159 66.1056,22.7739 L61.0526,27.8269 C60.4946,28.3849 59.5906,28.3849 59.0316,27.8269 L48.0066,16.8019 C47.8496,16.6449 47.7316,16.4529 47.6616,16.2429 L45.1336,8.6639 C44.7616,7.5459 45.8246,6.4839 46.9416,6.8559 L54.5216,9.3819 C54.7316,9.4519 54.9236,9.5699 55.0796,9.7279 M70.1596,59.7369 L70.1596,59.7369 C69.6006,60.2969 68.6926,60.2949 68.1346,59.7339 L52.7406,44.2149 C52.1866,43.6559 52.1886,42.7539 52.7446,42.1969 L59.0306,35.9109 C59.5896,35.3529 60.4936,35.3529 61.0516,35.9109 L68.1266,42.9839 C68.6846,43.5429 69.5896,43.5429 70.1476,42.9839 L81.2636,31.8699 C81.8216,31.3119 81.8216,30.4059 81.2636,29.8489 L78.2316,26.8159 C77.3946,25.9789 76.0376,25.9789 75.1996,26.8159 C74.3626,27.6529 74.3626,29.0099 75.1996,29.8479 L75.2016,29.8489 C75.7596,30.4059 75.7596,31.3119 75.2006,31.8699 L70.1476,36.9219 C69.5896,37.4809 68.6846,37.4799 68.1266,36.9219 L64.0846,32.8789 C63.5266,32.3209 63.5266,31.4159 64.0846,30.8589 L71.6626,23.2779 L76.5776,18.3629 L78.2316,16.7099 C78.7896,16.1509 78.7896,15.2469 78.2316,14.6889 L69.1376,5.5949 C68.5796,5.0359 67.6746,5.0359 67.1166,5.5949 L63.0736,9.6369 C62.5156,10.1949 61.6106,10.1949 61.0526,9.6369 L57.3966,5.9819 C57.2396,5.8239 57.0486,5.7059 56.8386,5.6359 L40.1646,0.0759 C39.0476,-0.2971 37.9846,0.7659 38.3566,1.8839 L43.9126,18.5599 C43.9826,18.7709 44.1006,18.9619 44.2586,19.1179 L47.9136,22.7749 C48.4726,23.3319 48.4726,24.2369 47.9146,24.7959 L39.0286,33.6809 L35.4916,37.2179 C34.9336,37.7759 34.0286,37.7759 33.4706,37.2179 L28.2096,31.9559 L27.7496,31.4969 L18.0686,29.5609 C17.7916,29.5059 17.5376,29.3689 17.3376,29.1699 L6.4816,18.3139 C5.9236,17.7549 5.9236,16.8509 6.4816,16.2919 L15.5766,7.1969 C16.1346,6.6389 17.0396,6.6389 17.5976,7.1969 L28.4546,18.0539 C28.6546,18.2529 28.7896,18.5069 28.8456,18.7839 L30.6966,28.0399 C30.7516,28.3169 30.8876,28.5699 31.0876,28.7699 L32.4606,30.1439 C33.2976,30.9819 34.6546,30.9819 35.4916,30.1449 L35.4916,30.1439 C36.3286,29.3069 36.3296,27.9499 35.4926,27.1129 L35.0366,26.6569 C34.8376,26.4569 34.7016,26.2029 34.6466,25.9269 L32.7956,16.6709 C32.7396,16.3939 32.6036,16.1399 32.4046,15.9409 L17.5976,1.1339 C17.0396,0.5759 16.1346,0.5759 15.5766,1.1339 L0.4186,16.2919 C-0.1394,16.8509 -0.1394,17.7549 0.4186,18.3139 L15.2246,33.1199 C15.4246,33.3189 15.6786,33.4549 15.9556,33.5109 L25.2126,35.3609 C25.4886,35.4169 25.7436,35.5529 25.9436,35.7529 L30.4396,40.2489 C30.9976,40.8079 30.9976,41.7119 30.4396,42.2709 L9.5116,63.1979 C8.9536,63.7559 8.9536,64.6609 9.5116,65.2199 L18.6066,74.3149 C19.1646,74.8729 20.0696,74.8729 20.6276,74.3149 L37.5136,57.4279 C38.3506,56.5909 38.3506,55.2339 37.5136,54.3979 L37.5116,54.3969 C36.6756,53.5599 35.3186,53.5599 34.4816,54.3969 L20.6276,68.2519 C20.0696,68.8099 19.1646,68.8099 18.6066,68.2519 L15.5736,65.2199 C15.0156,64.6609 15.0156,63.7559 15.5736,63.1979 L33.4706,45.3019 C34.0286,44.7429 34.9336,44.7429 35.4916,45.3019 L41.0506,50.8599 L59.0326,68.8429 C59.5916,69.4009 59.5916,70.3059 59.0326,70.8639 L59.0216,70.8749 C58.1906,71.7069 58.1906,73.0539 59.0216,73.8859 L59.0436,73.9069 C59.8746,74.7379 61.2216,74.7379 62.0526,73.9069 L63.0746,72.8849 L63.0756,72.8859 L72.1646,63.7959 L73.1916,62.7689 C74.0226,61.9379 74.0226,60.5899 73.1916,59.7589 L73.1806,59.7479 L73.1696,59.7369 C72.3386,58.9059 70.9906,58.9059 70.1596,59.7369" transform="translate(4 8)"/>
    <rect width="90" height="90"/>
  </g>
</svg>
