<svg xmlns="http://www.w3.org/2000/svg" width="24" height="24" viewBox="0 0 24 24">
  <g fill="none" fill-rule="evenodd">
    <rect width="24" height="24"/>
    <g fill="#C5CEDD" transform="translate(0 2)">
      <path d="M2,17 L2,7 C2,6.44771525 1.55228475,6 1,6 L1,6 C0.44771525,6 -6.76353751e-17,6.44771525 0,7 L0,19 C6.76353751e-17,19.5522847 0.44771525,20 1,20 L18,20 C18.5522847,20 19,19.5522847 19,19 L19,19 C19,18.4477153 18.5522847,18 18,18 L3,18 C2.44771525,18 2,17.5522847 2,17 Z"/>
      <path d="M7,13 L21,13 L21,3 L7,3 L7,13 Z M23,0 L5,0 C4.448,0 4,0.448 4,1 L4,6 L4,15 C4,15.552 4.448,16 5,16 L19,16 L23,16 C23.552,16 24,15.552 24,15 L24,1 C24,0.448 23.552,0 23,0 Z"/>
    </g>
  </g>
</svg>
