<svg xmlns="http://www.w3.org/2000/svg" width="134" height="100" viewBox="0 0 134 100" xmlns:xlink="http://www.w3.org/1999/xlink">
  <defs>
    <polygon id="a" points=".133 .093 31.245 .093 31.245 28.631 .133 28.631"/>
  </defs>
  <g fill="none" fill-rule="evenodd" transform="matrix(-1 0 0 1 134 0)">
    <path fill="#DAE2ED" d="M79.5690503,26.6994693 L28.0446089,7.94611732 L36.6821788,24.8102235 C38.3697486,28.1049162 41.2406983,30.6394134 44.7191899,31.9054749 L85.7281285,46.8315922 L87.1434916,42.942905 L79.5690503,26.6994693 Z"/>
    <path fill="#ECEFF6" d="M91.4106844,24.9542737 L22.938757,0.0326256983 C22.5004888,-0.127011173 22.0915503,0.329413408 22.2979749,0.747569832 L24.9118017,6.0425419 C25.2066341,6.6397486 25.7204609,7.10022346 26.3462989,7.32801676 L28.0446229,7.94617318 L79.5690642,26.6995251 L87.1435056,42.9429609 L85.7281425,46.831648 L84.6665503,49.7479888 L101.922556,56.0287151 L104.399372,49.2235475 L94.3295391,27.6289944 C93.7499302,26.3856983 92.6997905,25.4235475 91.4106844,24.9542737"/>
    <polygon fill="#C5CEDD" points="87.143 42.943 79.569 26.699 28.045 7.946 29.777 11.329 77.712 28.776 84.746 43.859 83.905 46.168 85.728 46.832"/>
    <path fill="#4F5D7F" d="M106.371592,41.5774581 C114.168101,58.0271788 107.153436,77.6826257 90.7037151,85.4791341 C74.2541341,93.2757821 54.5985475,86.2609777 46.8020391,69.811257 C39.0055307,53.361676 46.0201955,33.7062291 62.4699162,25.909581 C78.9194972,18.1130726 98.5750838,25.1277374 106.371592,41.5774581"/>
    <path fill="#7687B2" d="M95.9422207,46.5206145 C101.008701,57.2102793 96.4503212,69.9831844 85.7606564,75.0498045 C75.0709916,80.1162849 62.2979469,75.557905 57.2314665,64.8681006 C52.1648464,54.1784358 56.7233659,41.4055307 67.4130307,36.3390503 C78.1026955,31.2724302 90.8757402,35.8309497 95.9422207,46.5206145"/>
    <path fill="#FF7F14" d="M98.594148,29.6438128 C98.6551816,34.6889246 85.3711034,46.9651816 76.6808799,53.783338 C68.6772486,53.8428352 48.7653771,53.0183939 44.1018296,48.4727235 C43.4317179,47.8193715 43.3490363,47.3169972 43.3451257,46.9959078 C43.3428911,46.8097346 43.3719413,46.6080587 43.4312989,46.3966061 C46.2139804,36.5093156 52.724595,28.7047067 61.7638408,24.4200698 C73.1442877,19.0263547 86.6930307,20.5499581 98.0056006,28.4964665 C98.4176117,28.7855726 98.5877235,29.1179749 98.594148,29.6438128"/>
    <path fill="#FF903E" d="M77.255433,55.4253352 C77.255433,55.4253352 45.5483101,36.4862291 48.7712151,32.5380447 C51.9939804,28.59 56.1104609,25.2761732 61.0582263,22.9312011 C73.8854609,16.8514525 88.0773603,19.5088547 98.952919,27.1479609 C106.666466,32.5659777 77.255433,55.4253352 77.255433,55.4253352"/>
    <path fill="#EBEFF7" d="M92.9644553,47.9319274 C97.2516061,56.9770391 93.3943436,67.7848603 84.3492318,72.0720112 C75.3041201,76.359162 64.4961592,72.5018994 60.209148,63.4567877 C55.9219972,54.411676 59.7792598,43.6038547 68.8243715,39.3167039 C77.8694832,35.0296927 88.6774441,38.8868156 92.9644553,47.9319274"/>
    <path fill="#DAE2ED" d="M90.3589665,49.1668855 C93.9639944,56.7730307 90.720419,65.8614385 83.1142737,69.4664665 C75.5081285,73.0714944 66.4197207,69.8280587 62.8146927,62.2219134 C59.2096648,54.6157682 62.4531006,45.5272207 70.0592458,41.9221927 C77.6653911,38.3171648 86.7539385,41.5607402 90.3589665,49.1668855"/>
    <path fill="#C5CEDD" d="M67.4879749,49.2224581 L75.7717737,44.3051397 C76.2780587,44.004581 76.9062709,43.9968994 77.4196788,44.2851676 L85.8200978,49.0005307 C86.3335056,49.2886592 86.654176,49.8288827 86.6612989,50.4177095 L86.777919,60.0502514 C86.7850419,60.6390782 86.4775,61.1868436 85.9712151,61.4874022 L77.6874162,66.4047207 C77.1811313,66.7052793 76.552919,66.7128212 76.0395112,66.4245531 L67.6392318,61.7093296 C67.1256844,61.4210615 66.805014,60.8809777 66.7978911,60.2921508 L66.6812709,50.6596089 C66.674148,50.0707821 66.9816899,49.5230168 67.4879749,49.2224581"/>
    <path fill="#B7C2CE" d="M81.3597207,53.4321788 C82.6090223,56.0682123 81.485,59.217933 78.8489665,60.4672346 C76.212933,61.7165363 73.063352,60.592514 71.8139106,57.9566201 C70.5646089,55.3205866 71.6886313,52.1708659 74.3246648,50.9214246 C76.9605587,49.6721229 80.1102793,50.7961453 81.3597207,53.4321788"/>
    <path fill="#80A7FF" d="M117.734232 86.7529469L114.872779 86.7529469C114.137444 86.7529469 113.541355 87.349176 113.541355 88.0845112L113.541355 94.0765503C113.541355 95.724176 112.193031 97.0725 110.545265 97.0725 108.8975 97.0725 107.549316 95.724176 107.549316 94.0765503L107.549316 86.0871648 107.549316 68.4181704 107.549316 68.8912151C107.549316 67.0528073 109.039679 65.5624441 110.878226 65.5624441L121.063003 65.5624441C122.90155 65.5624441 124.391913 67.0528073 124.391913 68.8912151L124.391913 80.0952654C124.391913 83.7722207 121.411187 86.7529469 117.734232 86.7529469M124.660182 54.9309916L118.872472 54.9309916C118.86926 57.0437011 118.862416 59.1564106 118.851243 61.2689804L124.555992 61.2689804C124.509344 59.1564106 124.510601 57.0219134 124.660182 54.9309916"/>
    <path fill="#E4E9F7" d="M122.581508,68.6772626 L98.2696369,68.6772626 C97.9838827,68.6772626 97.7523184,68.4456983 97.7523184,68.1599441 C97.7523184,67.8743296 97.9838827,67.6427654 98.2696369,67.6427654 L122.581508,67.6427654 C122.866844,67.6427654 123.098827,67.4106425 123.098827,67.1254469 L123.098827,63.2348045 C123.098827,62.9490503 123.330391,62.717486 123.616145,62.717486 C123.90176,62.717486 124.133324,62.9490503 124.133324,63.2348045 L124.133324,67.1254469 C124.133324,67.9811732 123.437235,68.6772626 122.581508,68.6772626"/>
    <path fill="#000000" d="M125.426564,65.5736872 L121.805615,65.5736872 C121.51986,65.5736872 121.288296,65.3421229 121.288296,65.0563687 L121.288296,53.935 C121.288296,53.6493855 121.51986,53.4176816 121.805615,53.4176816 L125.426564,53.4176816 C125.712179,53.4176816 125.943883,53.6493855 125.943883,53.935 L125.943883,65.0563687 C125.943883,65.3421229 125.712179,65.5736872 125.426564,65.5736872"/>
    <path fill="#80A7FF" d="M124.606718,54.9309916 L126.705321,54.9309916 C126.991913,54.9309916 127.223617,55.1639525 127.222221,55.450405 C127.213422,57.2178631 127.207696,58.9853212 127.204623,60.752919 C127.204064,61.0381145 126.972919,61.2689804 126.687584,61.2689804 L124.705601,61.2689804 C123.14331,61.2689804 121.741355,60.180433 121.482975,58.6397905 C121.151271,56.6614385 122.686746,54.9309916 124.606718,54.9309916"/>
    <path fill="#000000" d="M113.529204,65.5736872 L109.908254,65.5736872 C109.62264,65.5736872 109.391075,65.3421229 109.391075,65.0563687 L109.391075,53.935 C109.391075,53.6493855 109.62264,53.4176816 109.908254,53.4176816 L113.529204,53.4176816 C113.814818,53.4176816 114.046522,53.6493855 114.046522,53.935 L114.046522,65.0563687 C114.046522,65.3421229 113.814818,65.5736872 113.529204,65.5736872"/>
    <path stroke="#2F3849" stroke-width="8" d="M111.718743,63.2347067 L111.718743,67.1254888 C111.718743,67.6968575 111.255615,68.1601257 110.684106,68.1601257 L86.3722346,68.1601257"/>
    <path fill="#9CB8FF" d="M121.564916,57.3702095 C118.905978,53.7538687 114.623575,51.3960475 109.817151,51.3960475 L93.4978771,51.3960475 L93.4974581,51.3960475 L90.1452235,51.3960475 C85.3355866,51.3960475 81.4003911,55.331243 81.4003911,60.1408799 L81.4003911,76.2017737 C81.4003911,79.4216061 84.0104469,82.0318017 87.2302793,82.0318017 L92.3273464,82.0318017 L115.647039,82.0318017 C120.456816,82.0318017 124.392011,78.0964665 124.392011,73.2868296 L124.392011,65.9709078 C124.392011,62.7611313 123.340475,59.7851536 121.564916,57.3702095"/>
    <path fill="#80A7FF" d="M96.0383799 51.3959916L90.1452235 51.3959916C85.3355866 51.3959916 81.4003911 55.3311872 81.4003911 60.140824L81.4003911 74.1327235C81.4003911 77.3525559 84.0104469 79.9626117 87.2302793 79.9626117L96.1258101 79.9626117C95.9780447 70.4483659 95.982514 60.9202933 96.0383799 51.3959916M77.3344693 72.1892039L71.182095 73.983757C69.4273464 74.4954888 68.1735754 76.0414385 68.0348883 77.8639246 67.8309777 80.5447905 70.0632402 82.7771927 72.7441061 82.5731425 74.5667318 82.4344553 76.1125419 81.1806844 76.6244134 79.4259358L78.4188268 73.2735615C78.6121229 72.610852 77.9973184 71.9959078 77.3344693 72.1892039"/>
    <path fill="#80A7FF" d="M91.6118575,86.7529469 L88.750405,86.7529469 C88.0150698,86.7529469 87.4189804,87.349176 87.4189804,88.0845112 L87.4189804,94.0765503 C87.4189804,95.724176 86.0706564,97.0725 84.4228911,97.0725 C82.7751257,97.0725 81.4269413,95.724176 81.4269413,94.0765503 L81.4269413,86.0871648 L81.4269413,63.7116061 L81.4269413,64.1847905 C81.4269413,62.346243 82.9173045,60.8558799 84.755852,60.8558799 L94.9406285,60.8558799 C96.779176,60.8558799 98.2695391,62.346243 98.2695391,64.1847905 L98.2695391,80.0952654 C98.2695391,83.7722207 95.2888128,86.7529469 91.6118575,86.7529469"/>
    <path fill="#E4E9F7" d="M110.684218,68.6772626 L86.3722067,68.6772626 C86.0865922,68.6772626 85.8550279,68.4456983 85.8550279,68.1599441 C85.8550279,67.8743296 86.0865922,67.6427654 86.3722067,67.6427654 L110.684218,67.6427654 C110.969413,67.6427654 111.201536,67.4106425 111.201536,67.1254469 L111.201536,63.2348045 C111.201536,62.9490503 111.433101,62.717486 111.718715,62.717486 C112.004469,62.717486 112.236034,62.9490503 112.236034,63.2348045 L112.236034,67.1254469 C112.236034,67.9811732 111.539944,68.6772626 110.684218,68.6772626"/>
    <path fill="#000000" d="M113.529204,65.5736872 L109.908254,65.5736872 C109.62264,65.5736872 109.391075,65.3421229 109.391075,65.0563687 L109.391075,53.935 C109.391075,53.6493855 109.62264,53.4176816 109.908254,53.4176816 L113.529204,53.4176816 C113.814818,53.4176816 114.046522,53.6493855 114.046522,53.935 L114.046522,65.0563687 C114.046522,65.3421229 113.814818,65.5736872 113.529204,65.5736872"/>
    <path fill="#80A7FF" d="M113.710265,54.9309916 L101.862221,54.9309916 C99.9098464,54.9309916 98.3271648,53.3483101 98.3271648,51.3959358 L90.8753492,51.3959358 L90.8753492,66.8214944 L98.2708799,66.8214944 C98.9556564,62.9328073 102.342528,61.2689804 106.427304,61.2689804 L113.611383,61.2689804 C115.173673,61.2689804 116.575628,60.180433 116.834008,58.6397905 C117.165852,56.6614385 115.630237,54.9309916 113.710265,54.9309916"/>
    <path fill="#80A7FF" d="M86.4132263,51.5765084 L113.491997,51.5765084 C118.321606,51.5765084 122.273003,47.6251117 122.273003,42.7955028 L122.273003,26.5467598 C122.273003,21.7172905 118.321606,17.7658939 113.491997,17.7658939 L86.4132263,17.7658939 C81.5836173,17.7658939 77.6322207,21.7172905 77.6322207,26.5467598 L77.6322207,42.7955028 C77.6322207,47.6251117 81.5836173,51.5765084 86.4132263,51.5765084"/>
    <path fill="#9CB8FF" d="M92.116648,51.5765084 L119.195419,51.5765084 C124.025028,51.5765084 127.976425,47.6251117 127.976425,42.7955028 L127.976425,26.5467598 C127.976425,21.7172905 124.025028,17.7658939 119.195559,17.7658939 L92.116648,17.7658939 C87.2871788,17.7658939 83.3356425,21.7172905 83.3356425,26.5467598 L83.3356425,42.7955028 C83.3356425,47.6251117 87.2871788,51.5765084 92.116648,51.5765084"/>
    <path fill="#9CB8FF" d="M80.2675,40.7942318 L86.7297905,40.7942318 L86.7297905,24.9885056 L80.2675,24.9885056 C77.0343994,24.9885056 74.4134497,27.6094553 74.4134497,30.8425559 L74.4134497,34.9401816 C74.4134497,38.1732821 77.0343994,40.7942318 80.2675,40.7942318"/>
    <path fill="#80A7FF" d="M86.7297346,37.2818715 L86.7297346,28.5008659 C86.7297346,28.1775419 86.4677235,27.9155307 86.1443994,27.9155307 L80.2675838,27.9155307 C78.6511034,27.9155307 77.3404888,29.2260056 77.3404888,30.842486 L77.3404888,34.9402514 C77.3404888,36.5568715 78.6511034,37.8672067 80.2675838,37.8672067 L86.1443994,37.8672067 C86.4677235,37.8672067 86.7297346,37.6051955 86.7297346,37.2818715"/>
    <path fill="#000000" d="M96.9129888,35.6646089 C98.5023743,35.6646089 99.802933,34.3640503 99.802933,32.7746648 C99.802933,31.1852793 98.5023743,29.8847207 96.9129888,29.8847207 C95.3234637,29.8847207 94.0230447,31.1852793 94.0230447,32.7746648 C94.0230447,34.3640503 95.3234637,35.6646089 96.9129888,35.6646089"/>
    <path fill="#B8D0FF" d="M128.217332,26.5467737 L124.704902,26.5467737 L112.411606,26.5467737 L108.313701,26.5467737 C106.381997,26.5467737 104.801271,28.1273603 104.801271,30.0590642 L104.801271,34.1569693 C104.801271,38.9864385 108.752807,42.9378352 113.582277,42.9378352 L117.680182,42.9378352 L119.436327,42.9378352 L122.948757,42.9378352 C127.778226,42.9378352 131.729763,38.9864385 131.729763,34.1569693 L131.729763,30.0590642 C131.729763,28.1273603 130.149176,26.5467737 128.217332,26.5467737"/>
    <path fill="#CBDAF7" d="M117.68014,42.9378911 L122.948715,42.9378911 C127.778324,42.9378911 131.729721,38.9864944 131.729721,34.1568855 L131.729721,30.0591201 C131.729721,28.1274162 130.149134,26.5468296 128.217291,26.5468296 L112.411564,26.5468296 C110.479721,26.5468296 108.899134,28.1274162 108.899134,30.0592598 L108.899134,34.1568855 C108.899134,38.9864944 112.850531,42.9378911 117.68014,42.9378911"/>
    <path fill="#9CB8FF" d="M120.042849 36.3130168L118.579302 36.3130168 117.701229 36.3130168 116.237682 36.3130168C115.432793 36.3130168 114.774274 36.9715363 114.774274 37.7765642 114.774274 38.5814525 115.432793 39.2401117 116.237682 39.2401117L117.701229 39.2401117 118.579302 39.2401117 120.042849 39.2401117C120.847737 39.2401117 121.506397 38.5814525 121.506397 37.7765642 121.506397 36.9715363 120.847737 36.3130168 120.042849 36.3130168M126.921271 36.3130168L126.043198 36.3130168 126.335936 36.3130168 125.457723 36.3130168C124.652835 36.3130168 123.994316 36.9715363 123.994316 37.7765642 123.994316 38.5814525 124.652835 39.2401117 125.457723 39.2401117L126.335936 39.2401117 126.043198 39.2401117 126.921271 39.2401117C127.726159 39.2401117 128.384818 38.5814525 128.384818 37.7765642 128.384818 36.9715363 127.726159 36.3130168 126.921271 36.3130168"/>
    <path fill="#80A7FF" d="M118.436578,46.4165503 L120.778617,46.4165503 C121.316327,46.4165503 121.7525,45.9806564 121.7525,45.4426676 C121.7525,44.9046788 121.316327,44.4687849 120.778617,44.4687849 L118.436578,44.4687849 C117.898869,44.4687849 117.462696,44.9046788 117.462696,45.4426676 C117.462696,45.9806564 117.898869,46.4165503 118.436578,46.4165503"/>
    <path fill="#4871E5" fill-opacity=".4" d="M129.776899,21.3081145 C129.776899,21.3081145 138.210698,33.8902374 129.14338,48.4078352 L123.994358,51.3959637 L90.8753631,49.9690084 L82.8239665,39.2400978 L90.8753631,17.7502933 L119.195475,17.7657961 L129.776899,21.3081145 Z"/>
    <path fill="#EBEFF7" d="M103.36007,9.4549581 C84.0671927,9.4549581 73.4096508,22.459567 73.4096508,33.2543994 C73.4096508,44.0492318 86.0590922,44.9746508 89.0275279,37.3886173 L95.2828352,20.863757 L122.840237,24.4333101 L129.776969,21.3081704 C127.188841,17.0983939 117.670824,9.4549581 103.36007,9.4549581"/>
    <polygon fill="#EBEFF7" points="86.957 39.24 104.399 48.408 129.143 48.408 126.729 52.416 86.413 52.416 82.924 44.458"/>
    <path fill="#DAE2ED" d="M82.9244134,26.6097207 L77.7466201,28.2500838 L75.4721788,19.0910056 C75.2022067,18.0042737 75.8232961,16.8947765 76.8906145,16.556648 C77.9580726,16.2185196 79.104581,16.7679609 79.5097486,17.8118156 L82.9244134,26.6097207 Z"/>
    <path fill="#B7C2CE" d="M76.2803771,22.3455168 L77.7467179,28.2501257 L82.9243715,26.6097626 L80.7228352,20.9372765 C79.2428073,21.4090642 77.7627793,21.8814106 76.2803771,22.3455168"/>
    <polygon fill="#B7C2CE" points="85.988 69.958 65.836 74.58 64.082 66.935 84.233 62.314"/>
    <path fill="#C5CEDD" d="M69.2150279,75.9155587 L43.8958939,84.5761732 C43.4139106,84.7409777 42.8813687,84.662067 42.4729888,84.3577374 C41.4045531,83.561648 39.4447765,81.5281285 38.3750838,76.866676 C37.3052514,72.2046648 38.182905,69.5200279 38.7972905,68.3380447 C39.032067,67.8863687 39.4764804,67.5831564 39.981648,67.5211453 L66.5398883,64.2606704 C67.0660056,64.1960056 67.5558101,64.5394413 67.6743855,65.0562011 L69.8884916,74.7052235 C70.0069274,75.2217039 69.7162849,75.7440503 69.2150279,75.9155587"/>
    <path fill="#B7C2CE" d="M62.2095531 68.6950698C62.3622067 69.3602933 61.9467039 70.0232821 61.2813408 70.1760754 60.616257 70.3285894 59.9531285 69.9130866 59.8004749 69.2478631 59.6478212 68.5826397 60.063324 67.9196508 60.7285475 67.7668575 61.3939106 67.6143436 62.0568994 68.0298464 62.2095531 68.6950698M56.3685894 69.5123883C56.521243 70.1776117 56.1057402 70.8406006 55.4405168 70.9932542 54.7752933 71.1459078 54.1121648 70.730405 53.9595112 70.0651816 53.8068575 69.3999581 54.2225 68.7368296 54.8877235 68.584176 55.5529469 68.431662 56.2159358 68.8471648 56.3685894 69.5123883"/>
    <polygon fill="#D0D9EA" points="85.714 68.642 69.477 81.221 64.672 75.022 80.909 62.443"/>
    <g transform="translate(42.179 71.313)">
      <mask id="b" fill="white">
        <use xlink:href="#a"/>
      </mask>
      <path fill="#EBEFF7" d="M30.9251117,9.70067039 L11.5894972,28.1991341 C11.2213408,28.5512291 10.705,28.7034637 10.2063966,28.5988547 C8.90248603,28.3253911 6.26952514,27.303743 3.34005587,23.5234358 C0.410167598,19.7424302 0.0784636872,16.9375419 0.139217877,15.6069553 C0.162402235,15.0984358 0.438240223,14.6365642 0.870642458,14.3678492 L23.5999721,0.248854749 C24.0502514,-0.0307541899 24.6390782,0.0751117318 24.9636592,0.49396648 L31.0277654,8.31938547 C31.3522067,8.73810056 31.307933,9.33432961 30.9251117,9.70067039" mask="url(#b)"/>
    </g>
    <path fill="#B7C2CE" d="M63.7127933 77.4055028C64.1308101 77.9450279 64.032486 78.7212849 63.4929609 79.1393017 62.9534358 79.5573184 62.1771788 79.4589944 61.7590223 78.9194693 61.3410056 78.3799441 61.4394693 77.6036872 61.9789944 77.1855307 62.5185196 76.767514 63.2946369 76.8659777 63.7127933 77.4055028M59.0501117 81.2417179C59.4682682 81.781243 59.3698045 82.5575 58.8302793 82.9755168 58.2907542 83.3935335 57.5144972 83.2952095 57.0964804 82.7556844 56.678324 82.2161592 56.7767877 81.4399022 57.3163128 81.0218855 57.855838 80.6037291 58.632095 80.7021927 59.0501117 81.2417179"/>
    <path fill="#DAE2ED" d="M90.6594413,36.4108101 C89.9259218,42.366257 85.2657263,46.693352 80.2506425,46.0756145 C75.235419,45.4578771 71.7646089,40.1293855 72.4981285,34.1737989 C73.231648,28.2184916 77.8918436,23.8913966 82.9069274,24.5091341 C87.9220112,25.1267318 91.3929609,30.4553631 90.6594413,36.4108101"/>
    <path fill="#B7C2CE" d="M86.8871229,36.0870112 C86.3658939,40.3184358 83.0548603,43.3930168 79.4914525,42.9540503 C75.9280447,42.5150838 73.4618436,38.7290503 73.9830726,34.4976257 C74.5043017,30.2662011 77.8154749,27.1917598 81.3788827,27.6305866 C84.9421508,28.0694134 87.4082123,31.8555866 86.8871229,36.0870112"/>
    <path fill="#FF903E" d="M84.8317039,35.8614246 C84.4585196,38.8918715 82.0871508,41.0935475 79.5351955,40.7793017 C76.9833799,40.4649162 75.2171788,37.7536034 75.5905028,34.7232961 C75.9636872,31.6928492 78.3349162,29.4910335 80.8868715,29.8052793 C83.4388268,30.1196648 85.2048883,32.8311173 84.8317039,35.8614246"/>
    <path fill="#FF7F14" d="M79.1755587,38.0611453 L78.5817039,37.8184078 C78.4175978,37.7515084 78.3389665,37.5642179 78.4060056,37.4002514 L80.4688547,32.352067 C80.5357542,32.1879609 80.7231844,32.1093296 80.8870112,32.1763687 L81.4810056,32.4191061 C81.6449721,32.4861453 81.7236034,32.6732961 81.6565642,32.8374022 L79.5938547,37.8855866 C79.5268156,38.0495531 79.3395251,38.1281844 79.1755587,38.0611453"/>
    <path fill="#000000" d="M86.0420391,73.644581 L79.3578212,73.644581 L79.3578212,51.3959777 L88.6284916,51.3959777 L88.6284916,71.0581285 C88.6284916,72.4866201 87.4705307,73.644581 86.0420391,73.644581"/>
    <path fill="#DAE2ED" d="M57.3262011,26.6994693 L5.80175978,7.94611732 L14.4393296,24.8102235 C16.1268994,28.1049162 18.9978492,30.6394134 22.4763408,31.9054749 L63.4852793,46.8315922 L64.9006425,42.942905 L57.3262011,26.6994693 Z"/>
    <path fill="#ECEFF6" d="M69.1678352,24.9542737 L0.695907821,0.0326256983 C0.257639665,-0.127011173 -0.151298883,0.329413408 0.0551256983,0.747569832 L2.66895251,6.0425419 C2.96378492,6.6397486 3.47761173,7.10022346 4.10344972,7.32801676 L5.80177374,7.94617318 L57.3262151,26.6995251 L64.9006564,42.9429609 L63.4852933,46.831648 L62.4238408,49.7479888 L79.6797067,56.0287151 L82.1565223,49.2235475 L72.0866899,27.6289944 C71.507081,26.3856983 70.4569413,25.4235475 69.1678352,24.9542737"/>
    <polygon fill="#C5CEDD" points="64.901 42.943 57.326 26.699 5.802 7.946 7.535 11.329 55.469 28.776 62.503 43.859 61.663 46.168 63.485 46.832"/>
    <path fill="#DAE2ED" d="M5.44877095 5.89104749C4.91413408 5.69635475 4.63592179 5.0997067 4.83047486 4.56506983 5.02502793 4.0302933 5.62181564 3.75208101 6.15645251 3.94677374 6.69122905 4.14132682 6.96944134 4.73797486 6.7747486 5.2727514 6.58019553 5.80738827 5.98354749 6.08560056 5.44877095 5.89104749M9.58047486 7.3948324C9.04569832 7.20013966 8.76748603 6.60349162 8.96217877 6.06885475 9.15673184 5.53407821 9.75337989 5.25586592 10.2881564 5.45055866 10.8227933 5.64511173 11.1011453 6.24189944 10.9064525 6.77653631 10.7118994 7.31117318 10.1151117 7.58952514 9.58047486 7.3948324M68.3961313 28.8019413C67.8614944 28.6072486 67.5831425 28.0106006 67.7778352 27.4759637 67.9723883 26.9413268 68.569176 26.6631145 69.1038128 26.8576676 69.6385894 27.0522207 69.9168017 27.6490084 69.7221089 28.1836453 69.5275559 28.7182821 68.9309078 28.9966341 68.3961313 28.8019413"/>
    <path fill="#FF5C5C" d="M84.7899022,56.1788408 L74.0776117,56.1788408 C73.1674162,56.1788408 72.429567,55.4409916 72.429567,54.5307961 L72.429567,48.7626397 C72.429567,47.8524441 73.1674162,47.114595 74.0776117,47.114595 L84.7899022,47.114595 C85.7000978,47.114595 86.4379469,47.8524441 86.4379469,48.7626397 L86.4379469,54.5307961 C86.4379469,55.4409916 85.7000978,56.1788408 84.7899022,56.1788408"/>
    <path fill="#D0D9EA" d="M88.6864665,59.062905 L80.2600698,59.062905 C77.9744553,59.062905 76.1218017,57.2101117 76.1218017,54.9247765 L76.1218017,48.3687709 C76.1218017,46.0832961 77.9744553,44.2305028 80.2600698,44.2305028 L88.6864665,44.2305028 C89.5435894,44.2305028 90.2382821,44.9253352 90.2382821,45.7823184 L90.2382821,57.5110894 C90.2382821,58.3680726 89.5435894,59.062905 88.6864665,59.062905"/>
    <path fill="#FF7F14" d="M112.555922,7.87062849 L112.091955,11.0130866 C114.586369,13.0158799 116.904525,15.4123883 118.890838,18.2957682 L121.733296,11.7426955 C119.430922,10.0933939 116.284553,9.11113128 112.555922,7.87062849"/>
    <polygon fill="#FF903E" points="118.891 18.296 121.733 11.743 124.201 18.296"/>
  </g>
</svg>
