<svg xmlns="http://www.w3.org/2000/svg" width="45" height="45" viewBox="0 0 45 45" xmlns:xlink="http://www.w3.org/1999/xlink">
  <defs>
    <polygon id="a" points="0 .867 0 32 43 32 43 .867 0 .867"/>
  </defs>
  <g fill="none" fill-rule="evenodd">
    <g transform="translate(1 6)">
      <path fill="#778FF4" d="M26.336,11.4144 L24.499,12.4754 C20.381,5.3434 20.381,5.3424 20.376,5.3334 C20.109,4.8894 19.547,4.7224 19.082,4.9484 C17.962,5.4904 16.857,6.0764 15.795,6.6894 C14.73,7.3044 13.669,7.9694 12.62,8.6824 L11.102,9.7784 C10.655,10.1024 10.554,10.7274 10.878,11.1754 C11.201,11.6224 11.825,11.7234 12.274,11.3994 L13.767,10.3204 C14.753,9.6514 15.772,9.0124 16.796,8.4214 C17.551,7.9854 18.331,7.5624 19.122,7.1614 L23.267,14.3414 C23.452,14.6624 23.788,14.8414 24.134,14.8414 C24.303,14.8414 24.475,14.7984 24.633,14.7074 L27.336,13.1464 C28.29,12.5964 28.972,11.7074 29.256,10.6434 C29.542,9.5804 29.395,8.4704 28.845,7.5164 L28.41,6.7634 C28.133,6.2854 27.521,6.1194 27.044,6.3964 C26.565,6.6734 26.401,7.2854 26.677,7.7634 L27.112,8.5164 C27.396,9.0074 27.471,9.5794 27.325,10.1264 C27.178,10.6734 26.827,11.1314 26.336,11.4144"/>
      <g transform="translate(0 .134)">
        <mask id="b" fill="white">
          <use xlink:href="#a"/>
        </mask>
        <path fill="#778FF4" d="M25.0323,2.4176 L23.4293,2.9866 C22.9093,3.1716 22.6373,3.7436 22.8223,4.2646 C23.0073,4.7856 23.5783,5.0536 24.0993,4.8716 L25.6713,4.3126 C32.9063,2.0026 38.7103,2.4646 40.4553,5.4876 C41.6203,7.5046 40.8643,10.6546 38.3803,14.1296 C35.7003,17.8796 31.3743,21.5896 26.2003,24.5776 C15.9243,30.5106 5.0883,31.7926 2.5403,27.3776 C0.8913,24.5236 3.0323,19.6766 8.0073,14.8406 L11.5473,20.9736 C11.8233,21.4516 12.4333,21.6156 12.9133,21.3396 L15.6173,19.7786 C17.5853,18.6426 18.2613,16.1166 17.1253,14.1486 L16.1693,12.4936 C15.8933,12.0156 15.2803,11.8506 14.8033,12.1276 C14.3253,12.4036 14.1613,13.0156 14.4383,13.4936 L15.3933,15.1486 C15.9783,16.1616 15.6303,17.4616 14.6173,18.0466 L12.7803,19.1076 L9.1083,12.7476 C8.9563,12.4856 8.6943,12.3066 8.3953,12.2596 C8.0963,12.2146 7.7923,12.3046 7.5693,12.5076 C1.1293,18.3676 -1.4607,24.4486 0.8073,28.3776 C2.2133,30.8116 5.2383,32.0006 9.1733,32.0006 C14.1943,31.9996 20.6963,30.0646 27.2003,26.3096 C32.6163,23.1826 37.1643,19.2696 40.0073,15.2926 C43.0113,11.0916 43.7843,7.2536 42.1873,4.4876 C39.9183,0.5586 33.3583,-0.2384 25.0323,2.4176" mask="url(#b)"/>
      </g>
    </g>
    <rect width="45" height="45"/>
  </g>
</svg>
