<svg xmlns="http://www.w3.org/2000/svg" width="80" height="80">
  <g fill="none" fill-rule="evenodd">
    <path fill="#5AC8FA" d="M71 69V31.2857143C71 15.6635143 58.383 3 42.8181818 3h-5.6363636C21.617 3 9 15.6635143 9 31.2857143V69"/>
    <path stroke="#1A1C1E" stroke-width="4" d="M71 69V31.2857143C71 15.6635143 58.383 3 42.8181818 3h-5.6363636C21.617 3 9 15.6635143 9 31.2857143V69" stroke-linecap="round" stroke-linejoin="round"/>
    <path fill="#E6EBF4" d="M71.2162162 68H8.78378378C6.69418918 68 5 69.6119 5 71.6V77h70v-5.4c0-1.9881-1.6941892-3.6-3.7837838-3.6"/>
    <path stroke="#1A1C1E" stroke-width="4" d="M71.2162162 68H8.78378378C6.69418918 68 5 69.6119 5 71.6V77h70v-5.4c0-1.9881-1.6941892-3.6-3.7837838-3.6z" stroke-linecap="round" stroke-linejoin="round"/>
    <path fill="#FFF" d="M36.3125 48.4689753h5.83125c.19125 0 .376875-.0590924.534375-.1696522l3.54375-2.4971285c.2521875-.1782302.403125-.4708326.403125-.7834503V31.9822088c0-.3126177-.1509375-.6052201-.403125-.7834503l-3.54375-2.4980816c-.1575-.1105598-.343125-.1696522-.534375-.1696522H36.3125c-.5175 0-.9375.4269899-.9375.9531025v18.0317456c0 .5261126.42.9531025.9375.9531025M45.07625 58H26.9375C26.42 58 26 57.5730101 26 57.0468975v-37.093795C26 19.4269899 26.42 19 26.9375 19h18.13875c.19125 0 .376875.0590924.534375.1696522l9.98625 7.040568c.2521875.1782302.403125.4708326.403125.7834502v23.0136123c0 .3126176-.1509375.60522-.403125.7834502l-9.98625 7.0396149C45.453125 57.9409076 45.2675 58 45.07625 58"/>
  </g>
</svg>