<svg xmlns="http://www.w3.org/2000/svg" width="45" height="45" viewBox="0 0 45 45">
  <g fill="none" fill-rule="evenodd">
    <path fill="#778FF4" d="M35.709375,21.25125 L26.0503125,21.25125 C25.501875,21.25125 25.0565625,20.805 25.0565625,20.2565625 C25.0565625,19.708125 25.501875,19.2628125 26.0503125,19.2628125 L35.709375,19.2628125 C36.2578125,19.2628125 36.7040625,19.708125 36.7040625,20.2565625 C36.7040625,20.805 36.2578125,21.25125 35.709375,21.25125 L35.709375,21.25125 Z M34.74375,38.6371875 C32.386875,38.6371875 30.4190625,36.94875 29.98125,34.7175 L39.50625,34.7175 C39.0684375,36.94875 37.100625,38.6371875 34.74375,38.6371875 L34.74375,38.6371875 Z M6.7321875,38.6371875 C4.05375,38.6371875 1.875,36.4584375 1.875,33.78 C1.875,31.1015625 4.05375,28.921875 6.7321875,28.921875 C9.410625,28.921875 11.5903125,31.1015625 11.5903125,33.78 C11.5903125,36.4584375 9.410625,38.6371875 6.7321875,38.6371875 L6.7321875,38.6371875 Z M8.169375,22.7953125 L12.331875,11.5359375 L15.5709375,11.5359375 L15.5709375,27.1715625 C13.77375,24.7734375 11.113125,23.18625 8.169375,22.7953125 L8.169375,22.7953125 Z M13.3921875,32.8425 C12.93375,29.5734375 10.1259375,27.046875 6.7321875,27.046875 C3.0196875,27.046875 0,30.0675 0,33.78 C0,37.4925 3.0196875,40.5121875 6.7321875,40.5121875 C10.1259375,40.5121875 12.93375,37.9865625 13.3921875,34.7175 L28.08375,34.7175 C28.5421875,37.9865625 31.35,40.5121875 34.74375,40.5121875 C38.1375,40.5121875 40.944375,37.9865625 41.40375,34.7175 L43.43625,34.7175 C43.95375,34.7175 44.37375,34.2975 44.37375,33.78 C44.37375,28.3209375 42.3028125,23.1375 38.5425,19.1821875 C38.46375,19.0996875 38.37,19.040625 38.2715625,18.991875 C37.8028125,18.0459375 36.8353125,17.3878125 35.709375,17.3878125 L26.0503125,17.3878125 C24.46875,17.3878125 23.1815625,18.675 23.1815625,20.2565625 C23.1815625,21.5090625 23.9925,22.5646875 25.1128125,22.955625 L25.1128125,28.014375 L17.4459375,28.014375 L17.4459375,10.5984375 C17.4459375,10.08 17.0259375,9.6609375 16.5084375,9.6609375 L10.2290625,9.6609375 C9.414375,9.6609375 8.7515625,8.9971875 8.7515625,8.1825 C8.7515625,7.3678125 9.414375,6.705 10.2290625,6.705 L16.5084375,6.705 C17.0259375,6.705 17.4459375,6.2859375 17.4459375,5.7675 L17.4459375,1.875 L20.371875,1.875 C20.889375,1.875 21.309375,1.455 21.309375,0.9375 C21.309375,0.42 20.889375,0 20.371875,0 L16.5084375,0 C15.9909375,0 15.5709375,0.42 15.5709375,0.9375 L15.5709375,4.83 L10.2290625,4.83 C8.3803125,4.83 6.8765625,6.3346875 6.8765625,8.1834375 C6.8765625,10.0321875 8.3803125,11.5359375 10.2290625,11.5359375 L10.333125,11.5359375 L6.21375,22.678125 C6.208125,22.695 6.211875,22.7109375 6.20625,22.726875 C4.8478125,22.790625 3.52875,23.0840625 2.2828125,23.630625 C1.8084375,23.8378125 1.5928125,24.3909375 1.801875,24.8653125 C2.01,25.3396875 2.5621875,25.55625 3.0365625,25.3471875 C4.20375,24.834375 5.446875,24.5746875 6.7321875,24.5746875 C10.0771875,24.5746875 13.1709375,26.4253125 14.806875,29.4028125 C14.9709375,29.7028125 15.2859375,29.889375 15.628125,29.889375 L26.0503125,29.889375 C26.56875,29.889375 26.9878125,29.469375 26.9878125,28.951875 L26.9878125,23.12625 L35.709375,23.12625 C36.78375,23.12625 37.71,22.52625 38.2021875,21.6515625 C40.78125,24.8371875 42.256875,28.7325 42.4546875,32.8425 L13.3921875,32.8425 Z" transform="translate(0 2)"/>
    <rect width="45" height="45"/>
  </g>
</svg>
