<svg xmlns="http://www.w3.org/2000/svg" width="24" height="24" viewBox="0 0 24 24">
  <g fill="none" fill-rule="evenodd">
    <rect width="24" height="24"/>
    <path fill="#FF80F4" d="M9.21367385,1.00080018 L0.271111835,12.3824866 C-0.070097065,12.8167618 0.00534806034,13.4454159 0.439623239,13.7866248 C0.615807436,13.9250522 0.833376265,14.0003 1.05743661,14.0003 L5,14.0003 L5,20.0003 C5,20.5525847 5.44771525,21.0003 6,21.0003 L14,21.0003 C14.5522847,21.0003 15,20.5525847 15,20.0003 L15,14.0003 L18.9425293,14.0003 C19.4948141,14.0003 19.9425293,13.5525847 19.9425293,13.0003 C19.9425293,12.7762402 19.867282,12.5586719 19.7288551,12.382488 L10.7863244,1.00080152 C10.4451163,0.566525757 9.81646235,0.491079562 9.38218659,0.832287723 C9.31949945,0.88154068 9.26292692,0.938113118 9.21367385,1.00080018 Z" transform="translate(2 1)"/>
  </g>
</svg>
