<svg xmlns="http://www.w3.org/2000/svg" width="90" height="90" viewBox="0 0 90 90" xmlns:xlink="http://www.w3.org/1999/xlink">
  <defs>
    <polygon id="a" points="0 66 0 .253 90 .253 90 66"/>
  </defs>
  <g fill="none" fill-rule="evenodd">
    <g transform="translate(0 12)">
      <path fill="#7289da" d="M70.4061 13.8739L31.6111 13.8739C30.8221 13.8739 30.1821 14.5139 30.1821 15.3029L30.1821 16.7319C30.1821 17.5209 30.8221 18.1609 31.6111 18.1609L70.4061 18.1609C71.1951 18.1609 71.8351 17.5209 71.8351 16.7319L71.8351 15.3029C71.8351 14.5139 71.1951 13.8739 70.4061 13.8739M31.6112 28.1737L70.4062 28.1737C71.1952 28.1737 71.8352 27.5337 71.8352 26.7447L71.8352 25.3157C71.8352 24.5267 71.1952 23.8867 70.4062 23.8867L31.6112 23.8867C30.8212 23.8867 30.1822 24.5267 30.1822 25.3157L30.1822 26.7447C30.1822 27.5337 30.8212 28.1737 31.6112 28.1737M31.6112 38.1854L70.4062 38.1854C71.1952 38.1854 71.8352 37.5444 71.8352 36.7554L71.8352 35.3274C71.8352 34.5374 71.1952 33.8974 70.4062 33.8974L31.6112 33.8974C30.8212 33.8974 30.1822 34.5374 30.1822 35.3274L30.1822 36.7554C30.1822 37.5444 30.8212 38.1854 31.6112 38.1854"/>
      <g transform="translate(0 .747)">
        <mask id="b" fill="white">
          <use xlink:href="#a"/>
        </mask>
        <path fill="#7289da" d="M83.9906,13.737 L83.9906,1.682 C83.9906,0.892 83.3506,0.253 82.5616,0.253 L19.4546,0.253 C18.6656,0.253 18.0256,0.892 18.0256,1.682 L18.0256,50.266 C18.0256,51.056 18.6656,51.696 19.4546,51.696 L56.2446,51.696 C57.0336,51.696 57.6736,52.336 57.6736,53.125 L57.6736,60.179 C57.6736,60.967 57.0356,61.606 56.2476,61.608 L11.7286,61.704 C10.9386,61.706 10.2966,61.065 10.2966,60.275 L10.2966,45.792 C10.2966,45.352 10.0946,44.937 9.7476,44.667 L7.1066,42.599 C6.3046,41.971 6.3976,40.73 7.2846,40.229 L9.5706,38.938 C10.0186,38.684 10.2966,38.209 10.2966,37.694 L10.2966,28.848 C10.2966,28.06 10.9346,27.421 11.7226,27.419 L12.3116,27.418 C13.0996,27.416 13.7386,26.777 13.7386,25.989 L13.7386,25.261 C13.7386,24.077 12.7786,23.118 11.5946,23.118 L7.4376,23.118 C6.6486,23.118 6.0086,23.758 6.0086,24.547 L6.0086,35.192 C6.0086,35.708 5.7316,36.183 5.2826,36.437 L1.4526,38.6 C-0.3214,39.602 -0.5074,42.085 1.0966,43.34 L5.4606,46.755 C5.8066,47.025 6.0086,47.44 6.0086,47.881 L6.0086,64.571 C6.0086,65.361 6.6506,66.002 7.4416,66 L60.5356,65.887 C61.3236,65.885 61.9616,65.247 61.9616,64.459 L61.9616,51.696 L61.9616,49.437 L61.9616,48.838 C61.9616,48.049 61.3216,47.409 60.5326,47.409 L23.7416,47.409 C22.9526,47.409 22.3136,46.768 22.3136,45.979 L22.3136,5.969 C22.3136,5.18 22.9526,4.541 23.7416,4.541 L78.2746,4.541 C79.0636,4.541 79.7036,5.18 79.7036,5.969 L79.7036,16.238 C79.7036,16.754 79.9806,17.229 80.4286,17.482 L82.7156,18.775 C83.6016,19.276 83.6946,20.517 82.8926,21.144 L80.2516,23.21 C79.9056,23.48 79.7036,23.895 79.7036,24.336 L79.7036,45.979 C79.7036,46.768 79.0636,47.409 78.2746,47.409 L68.3926,47.409 C67.2086,47.409 66.2486,48.368 66.2486,49.552 C66.2486,50.736 67.2086,51.696 68.3926,51.696 L82.5616,51.696 C83.3506,51.696 83.9906,51.056 83.9906,50.266 L83.9906,26.425 C83.9906,25.986 84.1936,25.571 84.5386,25.3 L88.9036,21.885 C90.5076,20.63 90.3216,18.147 88.5476,17.145 L84.7176,14.981 C84.2686,14.728 83.9906,14.253 83.9906,13.737" mask="url(#b)"/>
      </g>
    </g>
    <rect width="90" height="90"/>
  </g>
</svg>
