<svg xmlns="http://www.w3.org/2000/svg" width="80" height="80" xmlns:xlink="http://www.w3.org/1999/xlink">
  <defs>
    <path id="a" d="M0 79h56V0H0z"/>
  </defs>
  <g fill="none" fill-rule="evenodd" transform="translate(12 1)">
    <path fill="#43B581" d="M32.8666489 76.1007907l-.0050692-.0015142-.0014484-.0052995c-4.2074444-13.1064644 7.7363389-25.5928852 20.2732198-21.1950426l.0050692.0022712.0014484.0052996c4.2074444 13.1064644-7.7363389 25.5928852-20.2732198 21.1942855z"/>
    <path stroke="#1A1C1E" stroke-width="3" d="M32.8666489 76.1007907l-.0050692-.0015142-.0014484-.0052995c-4.2074444-13.1064644 7.7363389-25.5928852 20.2732198-21.1950426l.0050692.0022712.0014484.0052996c4.2074444 13.1064644-7.7363389 25.5928852-20.2732198 21.1942855zM44 65L34 75" stroke-linecap="round" stroke-linejoin="round"/>
    <path fill="#43B581" d="M22.1333511 76.1007907l.0050692-.0015142.0014484-.0052995c4.2074444-13.1064644-7.7363389-25.5928852-20.27321984-21.1950426l-.0050692.0022712-.00144835.0052996c-4.2074444 13.1064644 7.7363389 25.5928852 20.2732198 21.1942855"/>
    <path stroke="#1A1C1E" stroke-width="3" d="M22.1333511 76.1007907l.0050692-.0015142.0014484-.0052995c4.2074444-13.1064644-7.7363389-25.5928852-20.27321984-21.1950426l-.0050692.0022712-.00144835.0052996c-4.2074444 13.1064644 7.7363389 25.5928852 20.2732198 21.1942855zM12 65l10 10" stroke-linecap="round" stroke-linejoin="round"/>
    <mask id="b" fill="#fff">
      <use xlink:href="#a"/>
    </mask>
    <path fill="#43B581" d="M24 78h9V48h-9" mask="url(#b)"/>
    <path stroke="#1A1C1E" stroke-width="3" d="M24 78h9V48h-9z" stroke-linecap="round" stroke-linejoin="round" mask="url(#b)"/>
    <path fill="#F04747" d="M54 27C54 12.6407778 42.3592222 1 28 1S2 12.6407778 2 27s11.6407778 26 26 26 26-11.6407778 26-26" mask="url(#b)"/>
    <path stroke="#1A1C1E" stroke-width="3" d="M54 27C54 12.6407778 42.3592222 1 28 1S2 12.6407778 2 27s11.6407778 26 26 26 26-11.6407778 26-26z" stroke-linecap="round" stroke-linejoin="round" mask="url(#b)"/>
    <path fill="#E6EBF4" d="M46 28.5C46 18.28282 37.94104 10 28 10s-18 8.28282-18 18.5S18.05896 47 28 47s18-8.28282 18-18.5" mask="url(#b)"/>
    <path stroke="#1A1C1E" stroke-width="3" d="M46 28.5C46 18.28282 37.94104 10 28 10s-18 8.28282-18 18.5S18.05896 47 28 47s18-8.28282 18-18.5z" stroke-linecap="round" stroke-linejoin="round" mask="url(#b)"/>
    <path fill="#1A1C1E" d="M21 34c-1.1 0-2-.9642857-2-2.1428571v-5.7142858C19 24.9642857 19.9 24 21 24s2 .9642857 2 2.1428571v5.7142858C23 33.0357143 22.1 34 21 34m13 0c-1.1 0-2-.9642857-2-2.1428571v-5.7142858C32 24.9642857 32.9 24 34 24s2 .9642857 2 2.1428571v5.7142858C36 33.0357143 35.1 34 34 34" mask="url(#b)"/>
  </g>
</svg>