<svg xmlns="http://www.w3.org/2000/svg" width="143" height="41"><path fill="#FFF" d="M98.48 8.679l-1.256 8.464c-.287 2-2.55 2.929-4.632 2.929-1.94 0-3.843-.93-3.591-2.75l1.257-8.643c.287-1.894 2.55-2.858 4.632-2.858s3.878.964 3.59 2.858M95.885.004L95.885 0h-13.53a.695.695 0 0 0-.69.592l-.658 4.472a.694.694 0 0 0 .69.793h2.47c.249 0 .419.252.321.48a9.42 9.42 0 0 0-.657 2.342l-1.258 8.642c-.826 5.786 4.022 8.679 9.3 8.679 5.53 0 10.953-2.893 11.779-8.679l1.256-8.642c.81-5.672-3.867-8.563-9.024-8.675M15.297 11.349l.068 4.148a.184.184 0 0 1-.138.181l-1.397-5.003a.159.159 0 0 0-.008-.022L9.49.416A.679.679 0 0 0 8.865 0H3.953a.68.68 0 0 0-.672.59L.007 24.22c-.057.412.26.78.672.78H5.57a.68.68 0 0 0 .673-.591l1.282-9.388a.19.19 0 0 0 .002-.028l-.07-4.824.14-.035 1.467 5.003a.202.202 0 0 0 .007.021l4.053 9.43c.108.25.353.412.623.412h5.298a.68.68 0 0 0 .672-.59L22.993.78a.683.683 0 0 0-.672-.78h-4.859a.68.68 0 0 0-.672.59l-1.491 10.73a.2.2 0 0 0-.002.029M24.713 25h5.137a.704.704 0 0 0 .705-.59L33.993.78c.06-.412-.273-.78-.706-.78H28.15a.704.704 0 0 0-.705.59l-3.438 23.63c-.06.412.273.78.706.78M37.67.585l-.662 4.414a.69.69 0 0 0 .693.783h5.29a.69.69 0 0 1 .694.778l-2.492 17.663a.69.69 0 0 0 .695.777h5.128c.35 0 .646-.252.694-.59l2.545-18.037a.696.696 0 0 1 .694-.59h5.687a.696.696 0 0 0 .694-.585l.662-4.415A.69.69 0 0 0 57.3 0H38.364a.696.696 0 0 0-.694.585M73.4 8.722c-.18 1.447-1.33 2.895-3.31 2.895h-2.973a.69.69 0 0 1-.69-.781l.628-4.35a.694.694 0 0 1 .691-.59h3.172c1.906 0 2.662 1.307 2.482 2.826M71.637 0h-9.573a.694.694 0 0 0-.691.59l-3.366 23.63a.69.69 0 0 0 .69.78H63.8a.694.694 0 0 0 .691-.591l.99-7.058a.347.347 0 0 1 .346-.296h.656c.119 0 .23.06.294.158l4.871 7.471a.7.7 0 0 0 .588.316h6.3c.565 0 .896-.623.572-1.077l-5.112-7.174a.34.34 0 0 1 .133-.503c3.263-1.566 5.159-3.17 5.783-7.63C80.631 2.754 76.89 0 71.637 0M5.934 37.616l1.779.88a.195.195 0 0 1 .07.291C6.503 40.507 5.025 41 3.73 41 1.635 41-.294 39.776.037 37.343l.513-3.686C.88 31.239 3.172 30 5.312 30c1.252 0 2.683.51 3.321 2.213a.266.266 0 0 1-.153.342l-1.848.71a.28.28 0 0 1-.337-.113c-.29-.46-.848-.659-1.405-.659-.768.015-1.537.438-1.642 1.164l-.513 3.686c-.105.695.558 1.134 1.311 1.134.557 0 1.175-.233 1.557-.777a.262.262 0 0 1 .33-.084zm53.35 0l1.778.88a.195.195 0 0 1 .07.291C59.853 40.507 58.375 41 57.08 41c-2.095 0-4.025-1.224-3.693-3.657l.512-3.686C54.231 31.239 56.522 30 58.662 30c1.252 0 2.683.51 3.321 2.213a.266.266 0 0 1-.154.342l-1.847.71a.28.28 0 0 1-.338-.113c-.29-.46-.847-.659-1.404-.659-.769.015-1.537.438-1.643 1.164l-.512 3.686c-.106.695.557 1.134 1.311 1.134.557 0 1.175-.233 1.556-.777a.262.262 0 0 1 .331-.084zM9.55 40.28l1.353-9.698a.5.5 0 0 1 .495-.43h1.703a.5.5 0 0 1 .495.569l-.97 6.884a.5.5 0 0 0 .495.57h3.193a.5.5 0 0 1 .495.566l-.226 1.675a.5.5 0 0 1-.496.433h-6.041a.5.5 0 0 1-.496-.57zm15.71-9.735l2.105 9.698a.5.5 0 0 1-.489.606h-1.86a.5.5 0 0 1-.49-.407l-.253-1.332a.5.5 0 0 0-.491-.407h-2.11a.5.5 0 0 0-.457.298l-.686 1.55a.5.5 0 0 1-.457.298h-1.768a.5.5 0 0 1-.45-.72l4.728-9.697a.5.5 0 0 1 .45-.28h1.74a.5.5 0 0 1 .489.393zm-2.963 5.756h1.597l-.316-3.128h-.106l-1.175 3.128zm6.164 2.492l1.198-.995a.54.54 0 0 1 .71.016c.493.45 1.2.678 1.847.678.724 0 1.357-.257 1.462-.816.121-.665-.813-.952-1.672-1.073-1.673-.272-3.18-1.617-2.804-3.641C29.61 30.77 31.54 30 33.5 30c1.169 0 2.264.295 3.142 1.34a.422.422 0 0 1-.082.618l-1.274.884a.489.489 0 0 1-.582-.019c-.439-.347-1.01-.514-1.52-.526-.68-.015-1.252.241-1.312.785-.075.62.467.892 1.28 1.073 1.855.348 3.663 1.058 3.166 3.717-.392 2.085-2.2 3.128-4.506 3.128-1.152 0-2.548-.525-3.41-1.565a.456.456 0 0 1 .06-.642zm9.916 0l1.199-.995a.54.54 0 0 1 .71.016c.493.45 1.2.678 1.847.678.724 0 1.357-.257 1.462-.816.12-.665-.813-.952-1.673-1.073-1.672-.272-3.18-1.617-2.803-3.641C39.527 30.77 41.456 30 43.416 30c1.168 0 2.264.295 3.142 1.34a.422.422 0 0 1-.082.618l-1.274.884a.489.489 0 0 1-.582-.019c-.439-.347-1.01-.514-1.521-.526-.678-.015-1.25.241-1.311.785-.076.62.467.892 1.28 1.073 1.855.348 3.663 1.058 3.166 3.717-.392 2.085-2.2 3.128-4.506 3.128-1.152 0-2.548-.525-3.41-1.565a.456.456 0 0 1 .06-.642zm13.606-8.073l-1.352 9.698a.5.5 0 0 1-.496.43h-1.688a.5.5 0 0 1-.495-.568l1.353-9.698a.5.5 0 0 1 .495-.43h1.688a.5.5 0 0 1 .495.568z" fill-rule="evenodd"/></svg>