<svg xmlns="http://www.w3.org/2000/svg" width="45" height="45" viewBox="0 0 45 45"><path d="M15.48,19.5a9,9,0,1,0-9-9A9,9,0,0,0,15.48,19.5Zm0-16a7,7,0,1,1-7,7A7,7,0,0,1,15.48,3.5Z" fill="#778ff4"/><path d="M33.48,26.47a6,6,0,1,0-6-6A6,6,0,0,0,33.48,26.47Zm0-10a4,4,0,1,1-4,4A4,4,0,0,1,33.48,16.47Z" fill="#778ff4"/><path d="M33.52,28.47a11,11,0,0,0-4.75,1.07,15,15,0,0,0-28.29,7v6a1,1,0,0,0,2,0v-6a13,13,0,0,1,24.57-5.93,11,11,0,0,0-4.53,8.9v3a1,1,0,0,0,1,1l6,0h0a1,1,0,0,0,1-1v-6a14.8,14.8,0,0,0-.9-5.13,9,9,0,0,1,3.94-.9c5.29,0,9,3.29,9,8v4a1,1,0,0,0,2,0v-4C44.52,32.67,39.89,28.47,33.52,28.47Zm-5,13-4,0v-2a9,9,0,0,1,3.33-7,13.06,13.06,0,0,1,.63,4Z" fill="#778ff4"/></svg>