<svg xmlns="http://www.w3.org/2000/svg" width="2159" height="599" viewBox="0 0 2159 599">
  <g fill="#FAFBFB" fill-rule="evenodd" opacity=".8">
    <path d="M1028.14453,563.925781 C1078.95473,563.925781 1150.39844,543.700498 1150.39844,504.488281 C1150.39844,465.276064 1105.38442,435.707031 1054.57422,435.707031 C1003.76402,435.707031 937.601562,465.276064 937.601562,504.488281 C937.601562,543.700498 977.334334,563.925781 1028.14453,563.925781 Z" transform="rotate(-21 1044 499.816)"/>
    <path d="M371.157097 1C426.502278-3.48836894 876.558112 54.8793768 920.160975 214.646205 963.763838 374.413033 472.347768 578.276773 363.864128 574.097656-124.378906 555.289062-119.136719 40.7617188 371.157097 1zM1401.17128 421C1499.32109 421 1603 338.352306 1603 240.255104 1603 142.157901 1527.15981 51 1429.00999 51 1330.86018 51 1220 127.85009 1220 225.947293 1220 324.044495 1303.02147 421 1401.17128 421zM1855.80671 596.359375C1840.03603 594.483195 1616.5537 563.742188 1691.22859 385.820313 1765.90348 207.898438 1826.08483 192.946858 1878.11921 199 2364.04297 255.527344 2127.51562 628.683594 1855.80671 596.359375z"/>
  </g>
</svg>
