<svg xmlns="http://www.w3.org/2000/svg" width="1920" height="559" viewBox="0 0 1920 559">
  <g fill="#7289DA" fill-rule="evenodd" transform="translate(-381 81)" opacity=".1">
    <path d="M97.2932427,346.831683 C157.04308,364.15933 -4.13392197,432.347308 177.559383,432.347308 C359.252688,432.347308 775.563452,93.999652 922.42204,158.530902 C1069.28063,223.062152 813.572266,374.90625 931.129313,419.386719 C1048.68636,463.867188 1041.35563,284.819964 1226.12593,276.663714 C1410.89622,268.507464 1687.15555,356.827777 1830.94255,257.679339 C1974.72955,158.530902 2001.8978,23.1964777 2196.53697,48.8554688 C2506.06554,89.6601562 2417.50233,668.429688 2417.50233,668.429688 L96.0101764,664.198871 C96.0101764,664.198871 0.428706492,402.087567 0.513945867,381.003558 C0.599185242,359.91955 68.5203617,338.487455 97.2932427,346.831683 Z"/>
    <ellipse cx="1073.754" cy="83.684" transform="rotate(-41 1073.754 83.684)" rx="75.246" ry="45"/>
    <path d="M1506.49325,189.140625 C1506.49325,145.105469 1560.76695,173.539062 1669.50331,141.179688 C1778.23966,108.820313 1794.34795,78.4296875 1843.80105,99.8125 C1893.25415,121.195312 1790.70081,213.504037 1716.41924,233.175781 C1642.13768,252.847525 1506.49325,233.175781 1506.49325,189.140625 Z"/>
  </g>
</svg>
