<svg xmlns="http://www.w3.org/2000/svg" width="229" height="57">
  <path fill="#FFF" fill-rule="evenodd" d="M214.922162 18.9590827l-2.713675 18.4904469c-.619352 4.3698319-5.502764 6.3988806-9.997829 6.3988806-4.185138 0-8.293358-2.0290487-7.750923-6.0079514l2.713424-18.8813761c.619603-4.1355265 5.503015-6.2420044 9.997829-6.2420044 4.495065 0 8.370777 2.1064779 7.751174 6.2420044M209.317926.00834823l.001503-.008323h-29.205768c-.746129 0-1.379512.55108406-1.487498 1.29410176l-1.41985 9.7681858c-.13279.9132611.570496 1.7321947 1.487248 1.7321947h5.333395c.536671 0 .903222.5508319.692512 1.0476903-.665453 1.5705265-1.150262 3.2754823-1.4196 5.1168849l-2.713675 18.8813761c-1.782893 12.6393717 8.681706 18.9590576 20.07433 18.9590576 11.936312 0 23.640116-6.3196859 25.423009-18.9590576l2.712172-18.8813761C230.54327 6.5694013 220.448228.25299422 209.317926.0083482M33.8777689 25.8564863l.1498272 9.165146c.0030065.1884027-.1227681.3541062-.3041642.4005133h-.0002505L30.629677 24.3671721c-.0045098-.0168982-.0102724-.033292-.0172877-.0494336L21.0146836 1.6990792c-.2365164-.55713716-.7804541-.91880973-1.3825186-.91880973H8.75566718c-.7498873 0-1.38502407.55638053-1.48875055 1.30368584L.0148324 54.2964597c-.12652627.9102345.5757571 1.7228629 1.48875053 1.7228629H12.3384899c.7508895 0 1.3867779-.5578938 1.4892517-1.3067124l2.8402013-20.7429558c.002756-.020177.0040087-.0408584.0037582-.0612876l-.1550886-10.6584956.3096761-.0776814 3.2490941 11.0552257c.0047604.0156372.0102724.0312743.0167867.0464071l8.9760984 20.8342566c.2382703.5531018.7802035.9112434 1.379011.9112434h11.7333687c.7498873 0 1.3850241-.5563806 1.4887505-1.3036859l7.2535876-52.2125044c.1265262-.9102345-.5757572-1.72286283-1.4887506-1.72286283H38.6732394c-.7496368 0-1.3847735.5558761-1.4887506 1.3031814L33.8815271 25.7934332c-.002756.0209336-.0040087.0418672-.0037582.0630531m20.9693095 30.1627354h10.8376631c.7498873 0 1.385024-.5561283 1.4887505-1.3036859l7.2520843-52.21225217c.1265262-.9102345-.5757572-1.72286283-1.4887506-1.72286283h-10.837663c-.7496368 0-1.3847735.55612832-1.4887506 1.30368584L53.3583279 54.2963588c-.1265263.9102346.5757571 1.7228629 1.4887505 1.7228629M81.7457842 1.9968916l-1.4201006 9.7679336c-.1325394.9132611.5707462 1.7324469 1.4874978 1.7324469h11.3405109c.9117407 0 1.613523.8103584 1.4892517 1.7195841l-5.3424147 39.0828319c-.1242713.9092256.577511 1.719584 1.4892517 1.719584h10.994004c.75114 0 1.387029-.558146 1.489252-1.3069646l5.455411-39.9080708c.102224-.7490708.738112-1.3069646 1.489252-1.3069646h12.192872c.746129 0 1.379261-.5508318 1.487498-1.2941017l1.421103-9.76793367c.13279-.91326107-.570496-1.7324469-1.487498-1.7324469H83.2332821c-.7461291 0-1.3795121.55083185-1.4874979 1.29410176m76.8268948 18.0542708c-.388348 3.1985575-2.867762 6.3973672-7.131572 6.3973672h-6.405986c-.914247 0-1.617031-.8148982-1.4885-1.7261415l1.35596-9.6128231c.10523-.7460442.739866-1.300407 1.4885-1.300407H153.224c4.10822 0 5.735523 2.886823 5.348679 6.2420044M154.774385.78037033h-20.626536c-.749887 0-1.385024.55612832-1.489001 1.30368584l-7.252084 52.2122522c-.126526.9102345.575757 1.7228628 1.48875 1.7228628h10.990497c.75089 0 1.386778-.5578938 1.489252-1.3067124l2.13416-15.5950486c.051362-.3742832.369055-.6532301.744625-.6532301h1.412835c.25631 0 .495081.1314026.633133.3488097l10.496167 16.5088142c.276353.4345619.753395.6973672 1.266014.6973672h13.57489c1.215904 0 1.928711-1.377584 1.231689-2.3806327l-11.014549-15.849531c-.264077-.380084-.12828-.9089734.285874-1.1125088 7.031853-3.4593452 11.115269-7.0031814 12.461458-16.8596416C174.150441 6.86575086 166.091094.78037033 154.774385.78037033"/>
</svg>