<svg xmlns="http://www.w3.org/2000/svg" width="24" height="24" viewBox="0 0 24 24">
  <g fill="none" fill-rule="evenodd">
    <rect width="24" height="24"/>
    <path fill="#ADC6FA" d="M20.745,9.715 L16.775,9.715 L16.775,11.586 L20.253,11.586 L20.253,13.325 L16.775,13.325 L16.775,16.491 L15,16.491 L15,8 L20.745,8 L20.745,9.715 Z M11,16.491 L12.763,16.491 L12.763,8 L11,8 L11,16.491 Z M9.644,13.889 C9.644,15.772 7.989,16.719 6.333,16.731 C4.666,16.743 3,15.796 3,13.889 L3,10.794 C3,8.936 4.654,8 6.31,8 C7.461,8 8.648,8.468 9.296,9.799 L7.869,10.555 C7.593,9.907 6.921,9.619 6.262,9.619 C5.494,9.619 4.75,10.039 4.75,10.794 L4.75,13.889 C4.75,14.645 5.53,15.016 6.322,15.016 C7.113,15.016 7.916,14.645 7.916,13.889 L7.916,13.481 L5.986,13.481 L5.986,11.766 L9.644,11.766 L9.644,13.889 Z M1,4 C0.448,4 0,4.448 0,5 L0,10 L0,19 C0,19.552 0.448,20 1,20 L19,20 L23,20 C23.552,20 24,19.552 24,19 L24,5 C24,4.448 23.552,4 23,4 L1,4 Z"/>
  </g>
</svg>
