<svg xmlns="http://www.w3.org/2000/svg" width="45" height="45" viewBox="0 0 45 45" xmlns:xlink="http://www.w3.org/1999/xlink">
  <defs>
    <polygon id="a" points=".004 .062 4.893 .062 4.893 4.951 .004 4.951 .004 .062"/>
    <polygon id="c" points="7.766 8.709 7.766 .884 .919 .884 .919 8.709"/>
  </defs>
  <g fill="none" fill-rule="evenodd">
    <g transform="translate(3)">
      <path fill="#778FF4" d="M5.95848913,35.1581087 C4.95088043,40.1081087 5.2443587,43.8802826 5.25805435,44.0407174 C5.30011957,44.5513696 5.72761957,44.9377826 6.23142391,44.9377826 C6.25881522,44.9377826 6.28620652,44.9368043 6.31359783,44.9348478 C6.85261957,44.8898478 7.25272826,44.4173478 7.20772826,43.8793043 C7.20479348,43.8411522 6.91033696,40.1051739 7.92381522,35.3058261 C8.08229348,34.5535435 8.26816304,33.8002826 8.47653261,33.0685435 C10.1219674,27.2938696 13.1350109,22.7371304 17.4325109,19.5225652 C17.8649022,19.1997391 17.9539239,18.5863696 17.6301196,18.153 C17.3072935,17.721587 16.6939239,17.6325652 16.2605543,17.9563696 C11.6118587,21.4321304 8.36011957,26.3371304 6.5943587,32.5324565 C6.54446739,32.7105 6.50827174,32.8953913 6.46131522,33.0753913 C4.01566304,31.0435435 2.41425,28.2114783 2.02979348,25.1436522 C0.496858696,12.8968043 23.9447935,6.33169565 30.0647935,4.833 C29.0014239,10.2809348 25.02675,29.2660435 20.4964239,33.6153913 C18.5575109,35.4760435 15.8780543,36.3202826 12.7388152,36.0708261 C12.1949022,36.0248478 11.7282717,36.4278913 11.6852283,36.966913 C11.6412065,37.5049565 12.0422935,37.9774565 12.5813152,38.0205 C13.0009891,38.0547391 13.4138152,38.0723478 13.8207717,38.0723478 C17.0059891,38.0723478 19.7646848,37.0314783 21.8513152,35.0270217 C27.5839239,29.5223478 32.0800109,4.7655 32.2688152,3.71386957 C32.3265326,3.39397826 32.2208804,3.06723913 31.9880543,2.84028261 C31.7562065,2.61430435 31.4265326,2.5155 31.1076196,2.58397826 C29.7595761,2.86278261 -1.8881413,9.60006522 0.088923913,25.3862609 C0.573163043,29.2533261 2.71261957,32.7916957 5.95848913,35.1581087"/>
      <g transform="translate(2.935 .916)">
        <mask id="b" fill="white">
          <use xlink:href="#a"/>
        </mask>
        <path fill="#778FF4" d="M0.982173913,3.48446739 L1.47032609,3.48446739 L1.47032609,3.97261957 C1.47032609,4.51261957 1.90858696,4.95088043 2.44858696,4.95088043 C2.98858696,4.95088043 3.42684783,4.51261957 3.42684783,3.97261957 L3.42684783,3.48446739 L3.915,3.48446739 C4.455,3.48446739 4.89326087,3.04620652 4.89326087,2.50620652 C4.89326087,1.96620652 4.455,1.52794565 3.915,1.52794565 L3.42684783,1.52794565 L3.42684783,1.03979348 C3.42684783,0.499793478 2.98858696,0.0615326087 2.44858696,0.0615326087 C1.90858696,0.0615326087 1.47032609,0.499793478 1.47032609,1.03979348 L1.47032609,1.52794565 L0.982173913,1.52794565 C0.442173913,1.52794565 0.00391304348,1.96620652 0.00391304348,2.50620652 C0.00391304348,3.04620652 0.442173913,3.48446739 0.982173913,3.48446739" mask="url(#b)"/>
      </g>
      <g transform="translate(30.326 22.438)">
        <mask id="d" fill="white">
          <use xlink:href="#c"/>
        </mask>
        <path fill="#778FF4" d="M1.89733696,3.32882609 C1.35733696,3.32882609 0.919076087,3.76708696 0.919076087,4.30708696 C0.919076087,4.84708696 1.35733696,5.28534783 1.89733696,5.28534783 L3.36472826,5.28534783 L3.36472826,7.731 C3.36472826,8.271 3.80298913,8.70926087 4.34298913,8.70926087 C4.88298913,8.70926087 5.32125,8.271 5.32125,7.731 L5.32125,5.28534783 L6.7886413,5.28534783 C7.3286413,5.28534783 7.76690217,4.84708696 7.76690217,4.30708696 C7.76690217,3.76708696 7.3286413,3.32882609 6.7886413,3.32882609 L5.32125,3.32882609 L5.32125,1.86241304 C5.32125,1.32241304 4.88298913,0.884152174 4.34298913,0.884152174 C3.80298913,0.884152174 3.36472826,1.32241304 3.36472826,1.86241304 L3.36472826,3.32882609 L1.89733696,3.32882609 Z" mask="url(#d)"/>
      </g>
    </g>
    <rect width="45" height="45"/>
  </g>
</svg>
