<svg xmlns="http://www.w3.org/2000/svg" width="45" height="45" viewBox="0 0 45 45"><path d="M44.81,18.25l-5.62-7.5a.94.94,0,0,0-.75-.38H28.12V5.68a.92.92,0,0,0-.93-.93H9.54a.93.93,0,0,0-.93.93V9.34L.74,17.21a.94.94,0,0,0,0,1.32l8.14,8.14a.94.94,0,0,0,1.6-.66v-3h8.74a.93.93,0,0,0,.94-.93V13.61a.93.93,0,0,0-.94-.93H10.48V6.62H26.25v22.5h-13a6.09,6.09,0,0,0-6.84,0H.94a.94.94,0,0,0-.94.94v4.1a.94.94,0,0,0,.94.94H3.83a6.09,6.09,0,0,0,12,0l.08,0H29.06l.08,0a6.09,6.09,0,0,0,12,0h2.89a.94.94,0,0,0,.94-.94V18.81A.92.92,0,0,0,44.81,18.25Zm-26.53-3.7v6.64H9.54a.94.94,0,0,0-.93.94v1.62L2.73,17.87,8.61,12v1.61a.94.94,0,0,0,.93.94Zm24.84,4.57v2.5H34.69V12.25H38ZM1.88,31H4.65a6.06,6.06,0,0,0-.82,2.22H1.88Zm8,7.38a4.22,4.22,0,1,1,4.22-4.22A4.23,4.23,0,0,1,9.84,38.38Zm25.32,0a4.22,4.22,0,1,1,4.22-4.22A4.22,4.22,0,0,1,35.16,38.38Zm8-5.16H41.17a6.09,6.09,0,0,0-12,0l-.08,0H15.94l-.08,0A6,6,0,0,0,15,31H27.19a.93.93,0,0,0,.93-.94V12.25h4.69V22.56a.94.94,0,0,0,.94.94h9.37Z" fill="#778ff4"/></svg>