<svg xmlns="http://www.w3.org/2000/svg" width="45" height="45" viewBox="0 0 45 45"><path d="M27.19,26.25H13.12a.94.94,0,0,0-.93.94v4.69a2.82,2.82,0,0,1-5.63,0V13.12a2.82,2.82,0,0,1,5.63,0V22.5a.94.94,0,1,0,1.87,0V13.12a4.68,4.68,0,0,0-9.28-.86A5.63,5.63,0,0,0,0,17.81v9.38a5.63,5.63,0,0,0,4.78,5.55,4.68,4.68,0,0,0,9.28-.86V28.12H27.19a.94.94,0,0,0,0-1.87ZM4.69,30.8a3.73,3.73,0,0,1-2.82-3.61V17.81A3.73,3.73,0,0,1,4.69,14.2Z" fill="#778ff4"/><path d="M40.22,12.26a4.68,4.68,0,0,0-9.28.86v3.76H17.81a.94.94,0,0,0,0,1.87H31.88a.94.94,0,0,0,.93-.94V13.12a2.82,2.82,0,0,1,5.63,0V31.88a2.82,2.82,0,0,1-5.63,0V22.59a.94.94,0,1,0-1.87,0v9.29a4.68,4.68,0,0,0,9.28.86A5.63,5.63,0,0,0,45,27.19V17.81A5.63,5.63,0,0,0,40.22,12.26Zm2.91,14.93a3.73,3.73,0,0,1-2.82,3.61V14.2a3.73,3.73,0,0,1,2.82,3.61Z" fill="#778ff4"/></svg>