<svg xmlns="http://www.w3.org/2000/svg" width="24" height="24" viewBox="0 0 24 24">
  <g fill="none" fill-rule="evenodd">
    <rect width="24" height="24"/>
    <path fill="#FF7F14" d="M7,14 L7,10 L3,10 C2.44771525,10 2,9.55228475 2,9 L2,8 C2,7.44771525 2.44771525,7 3,7 L7,7 L7,3 C7,2.44771525 7.44771525,2 8,2 L9,2 C9.55228475,2 10,2.44771525 10,3 L10,7 L14,7 L14,3 C14,2.44771525 14.4477153,2 15,2 L16,2 C16.5522847,2 17,2.44771525 17,3 L17,7 L21,7 C21.5522847,7 22,7.44771525 22,8 L22,9 C22,9.55228475 21.5522847,10 21,10 L17,10 L17,14 L21,14 C21.5522847,14 22,14.4477153 22,15 L22,16 C22,16.5522847 21.5522847,17 21,17 L17,17 L17,21 C17,21.5522847 16.5522847,22 16,22 L15,22 C14.4477153,22 14,21.5522847 14,21 L14,17 L10,17 L10,21 C10,21.5522847 9.55228475,22 9,22 L8,22 C7.44771525,22 7,21.5522847 7,21 L7,17 L3,17 C2.44771525,17 2,16.5522847 2,16 L2,15 C2,14.4477153 2.44771525,14 3,14 L7,14 Z M10,14 L14,14 L14,10 L10,10 L10,14 Z"/>
  </g>
</svg>
