<svg xmlns="http://www.w3.org/2000/svg" width="45" height="45" viewBox="0 0 45 45" xmlns:xlink="http://www.w3.org/1999/xlink">
  <defs>
    <polygon id="a" points="45 .004 45 14.063 0 14.063 0 .004 45 .004"/>
    <polygon id="c" points="45 25.776 45 .925 0 .925 0 25.776"/>
    <polygon id="e" points="0 34.699 45 34.699 45 .937 0 .937"/>
  </defs>
  <g fill="none" fill-rule="evenodd">
    <g transform="translate(0 5)">
      <g transform="translate(0 20.637)">
        <mask id="b" fill="white">
          <use xlink:href="#a"/>
        </mask>
        <path fill="#778FF4" d="M44.0625937,0.004125 L32.8163437,0.004125 C32.2988437,0.004125 31.8788437,0.424125 31.8788437,0.941625 C31.8788437,1.459125 32.2988437,1.879125 32.8163437,1.879125 L43.1250937,1.879125 L43.1250937,12.187875 L1.87509375,12.187875 L1.87509375,1.879125 L12.1838437,1.879125 C12.7013437,1.879125 13.1213437,1.459125 13.1213437,0.941625 C13.1213437,0.424125 12.7013437,0.004125 12.1838437,0.004125 L0.93759375,0.004125 C0.42009375,0.004125 9.37499999e-05,0.424125 9.37499999e-05,0.941625 L9.37499999e-05,13.125375 C9.37499999e-05,13.642875 0.42009375,14.062875 0.93759375,14.062875 L44.0625937,14.062875 C44.5800937,14.062875 45.0000937,13.642875 45.0000937,13.125375 L45.0000937,0.941625 C45.0000937,0.424125 44.5800937,0.004125 44.0625937,0.004125" mask="url(#b)"/>
      </g>
      <g transform="translate(0 .012)">
        <mask id="d" fill="white">
          <use xlink:href="#c"/>
        </mask>
        <path fill="#778FF4" d="M43.1250937,15.9242812 L29.0625937,15.9242812 L29.0625937,10.7745937 C29.0625937,10.2570937 28.6425937,9.83709375 28.1250937,9.83709375 L16.8750937,9.83709375 C16.3575937,9.83709375 15.9375937,10.2570937 15.9375937,10.7745937 L15.9375937,15.9242812 L1.87509375,15.9242812 L1.87509375,7.48771875 C1.87509375,4.90396875 3.97790625,2.80021875 6.56259375,2.80021875 L38.4375937,2.80021875 C41.0222812,2.80021875 43.1250937,4.90396875 43.1250937,7.48771875 L43.1250937,15.9242812 Z M17.8125937,23.9005312 L27.1875937,23.9005312 L27.1875937,11.7120937 L17.8125937,11.7120937 L17.8125937,23.9005312 Z M38.4375937,0.92521875 L6.56259375,0.92521875 C2.94384375,0.92521875 9.37499999e-05,3.86990625 9.37499999e-05,7.48771875 L9.37499999e-05,16.8617812 C9.37499999e-05,17.3792812 0.42009375,17.7992812 0.93759375,17.7992812 L15.9375937,17.7992812 L15.9375937,24.8380312 C15.9375937,25.3564687 16.3575937,25.7755312 16.8750937,25.7755312 L28.1250937,25.7755312 C28.6425937,25.7755312 29.0625937,25.3564687 29.0625937,24.8380312 L29.0625937,17.7992812 L44.0625937,17.7992812 C44.5800937,17.7992812 45.0000937,17.3792812 45.0000937,16.8617812 L45.0000937,7.48771875 C45.0000937,3.86990625 42.0563437,0.92521875 38.4375937,0.92521875 L38.4375937,0.92521875 Z" mask="url(#d)"/>
      </g>
      <mask id="f" fill="white">
        <use xlink:href="#e"/>
      </mask>
      <path fill="#778FF4" d="M21.5625,19.6937813 L23.4375,19.6937813 L23.4375,15.9437813 L21.5625,15.9437813 L21.5625,19.6937813 Z M25.3125,15.0062813 C25.3125,14.4878438 24.8925,14.0687813 24.375,14.0687813 L20.625,14.0687813 C20.1075,14.0687813 19.6875,14.4878438 19.6875,15.0062813 L19.6875,20.6312813 C19.6875,21.1487813 20.1075,21.5687813 20.625,21.5687813 L24.375,21.5687813 C24.8925,21.5687813 25.3125,21.1487813 25.3125,20.6312813 L25.3125,15.0062813 Z" mask="url(#f)"/>
    </g>
    <rect width="45" height="45"/>
  </g>
</svg>
