<svg xmlns="http://www.w3.org/2000/svg" width="90" height="90" viewBox="0 0 90 90" xmlns:xlink="http://www.w3.org/1999/xlink">
  <defs>
    <polygon id="a" points="0 14.866 0 .563 14.365 .563 14.365 14.866 0 14.866"/>
    <polygon id="c" points="62.902 .239 .576 .239 .576 71 62.902 71 62.902 .239"/>
  </defs>
  <g fill="none" fill-rule="evenodd">
    <g transform="translate(2 9)">
      <g transform="translate(0 21.761)">
        <mask id="b" fill="white">
          <use xlink:href="#a"/>
        </mask>
        <path fill="#7289da" d="M0.6324,4.2271 L10.7104,14.2431 C11.5504,15.0771 12.9074,15.0731 13.7424,14.2331 C14.5764,13.3931 14.5724,12.0361 13.7334,11.2011 L3.6544,1.1861 C2.8154,0.3511 1.4574,0.3561 0.6234,1.1961 C-0.2116,2.0351 -0.2076,3.3921 0.6324,4.2271" mask="url(#b)"/>
      </g>
      <path fill="#7289da" d="M86.3453,23.0596 L86.3453,23.0596 C85.5053,22.2256 84.1483,22.2296 83.3133,23.0696 L73.0393,33.4086 C72.2043,34.2476 72.2093,35.6056 73.0483,36.4396 C73.8883,37.2746 75.2453,37.2696 76.0803,36.4306 L86.3543,26.0916 C87.1893,25.2516 87.1853,23.8946 86.3453,23.0596"/>
      <g transform="translate(11 .761)">
        <mask id="d" fill="white">
          <use xlink:href="#c"/>
        </mask>
        <path fill="#7289da" d="M26.7037,51.9946 C27.2577,52.5456 27.2607,53.4406 26.7097,53.9946 L26.1937,54.5146 L21.6687,59.0676 C21.1187,59.6216 20.2227,59.6246 19.6687,59.0736 L18.6337,58.0466 C18.0797,57.4956 18.0767,56.5996 18.6277,56.0456 L23.1527,51.4916 L23.6687,50.9736 C24.2197,50.4186 25.1147,50.4156 25.6687,50.9666 L26.7037,51.9946 Z M25.7557,65.1236 L24.7217,64.0956 C24.1667,63.5446 24.1637,62.6486 24.7147,62.0956 C25.2657,61.5406 26.1617,61.5376 26.7157,62.0886 L27.7497,63.1166 C28.3037,63.6676 28.3067,64.5626 27.7557,65.1166 C27.2057,65.6716 26.3097,65.6746 25.7557,65.1236 L25.7557,65.1236 Z M7.4937,46.9746 L6.4587,45.9466 C5.9047,45.3966 5.9027,44.5006 6.4527,43.9466 L11.4947,38.8736 C12.0447,38.3196 12.9407,38.3166 13.4947,38.8676 L14.5287,39.8956 C15.0827,40.4466 15.0857,41.3426 14.5357,41.8956 L9.4947,46.9696 C8.9437,47.5226 8.0477,47.5256 7.4937,46.9746 L7.4937,46.9746 Z M20.6227,47.9456 L15.5817,53.0176 C15.0307,53.5726 14.1357,53.5756 13.5807,53.0246 L12.5467,51.9966 C11.9927,51.4456 11.9897,50.5506 12.5397,49.9966 L17.5817,44.9236 C18.1317,44.3696 19.0277,44.3666 19.5817,44.9176 L20.6167,45.9446 C21.1707,46.4956 21.1737,47.3906 20.6227,47.9456 L20.6227,47.9456 Z M40.8757,22.6066 L24.4407,25.9326 C22.5917,26.3066 20.7777,25.1546 20.3287,23.3226 L20.3267,23.3126 C19.8487,21.3596 21.1027,19.4036 23.0787,19.0246 L50.1557,13.8246 C50.4347,13.7706 50.6917,13.6346 50.8927,13.4326 L57.0867,7.1996 C57.9217,6.3596 57.9177,5.0026 57.0777,4.1676 C56.2377,3.3336 54.8807,3.3376 54.0457,4.1776 L48.7837,9.4726 C48.5837,9.6736 48.3267,9.8096 48.0477,9.8636 L40.0587,11.3976 C39.5997,11.4856 39.1267,11.3416 38.7947,11.0126 L33.1957,5.4476 C32.5317,4.7876 31.5857,4.4946 30.6647,4.6646 L20.3877,6.5516 C19.9317,6.6356 19.4637,6.4906 19.1357,6.1636 L13.8007,0.8616 C12.9607,0.0276 11.6027,0.0316 10.7687,0.8716 C9.9337,1.7116 9.9377,3.0686 10.7777,3.9026 L17.7027,10.7846 C18.0317,11.1116 18.4997,11.2566 18.9547,11.1726 L29.9747,9.1486 C30.4307,9.0646 30.8987,9.2106 31.2277,9.5366 L32.3277,10.6306 C33.1347,11.4316 32.7137,12.8076 31.5977,13.0226 L22.2707,14.8136 C17.8867,15.6556 15.1007,19.9956 16.1617,24.3316 L16.1647,24.3416 C17.1597,28.4086 21.1877,30.9656 25.2917,30.1356 L39.4797,27.2646 C39.9427,27.1706 40.4217,27.3136 40.7567,27.6466 L57.0187,43.8066 C57.5737,44.3576 57.5767,45.2536 57.0257,45.8076 L55.9967,46.8426 C55.4467,47.3966 54.5517,47.3996 53.9967,46.8486 L40.3077,33.2536 C39.7467,32.6966 38.8427,32.7006 38.2867,33.2606 L37.2787,34.2736 C36.7227,34.8336 36.7247,35.7386 37.2847,36.2956 L50.9697,49.8946 C51.5237,50.4456 51.5267,51.3416 50.9757,51.8946 L49.9477,52.9306 C49.3977,53.4836 48.5017,53.4866 47.9477,52.9356 L34.2577,39.3406 C33.6977,38.7846 32.7927,38.7876 32.2367,39.3476 L31.2287,40.3616 C30.6727,40.9216 30.6757,41.8256 31.2357,42.3826 L44.9207,55.9816 C45.4747,56.5326 45.4767,57.4286 44.9267,57.9826 L43.8937,59.0216 C43.3427,59.5766 42.4477,59.5786 41.8927,59.0286 L39.3577,56.5086 C38.8037,55.9586 37.9077,55.9606 37.3577,56.5156 L36.3287,57.5496 C35.7787,58.1036 35.7817,58.9996 36.3357,59.5506 L38.8707,62.0696 C39.4257,62.6206 39.4277,63.5156 38.8777,64.0696 L37.8497,65.1046 C37.2987,65.6586 36.4027,65.6616 35.8487,65.1106 L29.7377,59.0376 C29.1827,58.4866 29.1807,57.5916 29.7307,57.0376 L31.7557,55.0006 C32.8687,53.8806 32.8627,52.0706 31.7427,50.9576 L27.6827,46.9236 L24.6467,43.9056 L21.5957,40.8736 L18.5597,37.8566 L14.4997,33.8216 C13.3797,32.7096 11.5697,32.7156 10.4577,33.8346 L1.4077,42.9416 C0.2947,44.0606 0.2997,45.8716 1.4197,46.9836 L24.7507,70.1696 C25.8707,71.2816 27.6807,71.2756 28.7927,70.1566 L30.8027,68.1346 C31.3527,67.5806 32.2487,67.5776 32.8027,68.1286 L34.8437,70.1566 C35.9637,71.2686 37.7727,71.2636 38.8857,70.1436 L44.4317,64.5626 L45.9377,63.0476 L48.9697,59.9966 L51.9877,56.9606 L55.0187,53.9096 L58.0367,50.8726 L62.0717,46.8126 C63.1837,45.6936 63.1787,43.8836 62.0587,42.7706 L42.1537,22.9896 C41.8187,22.6566 41.3397,22.5136 40.8757,22.6066 L40.8757,22.6066 Z" mask="url(#d)"/>
      </g>
    </g>
    <rect width="90" height="90"/>
  </g>
</svg>
