<svg xmlns="http://www.w3.org/2000/svg" width="45" height="45" viewBox="0 0 45 45" xmlns:xlink="http://www.w3.org/1999/xlink">
  <defs>
    <polygon id="a" points="0 20.994 0 41.087 45 41.087 45 20.994 45 .901 0 .901"/>
  </defs>
  <g fill="none" fill-rule="evenodd">
    <g transform="translate(0 1)">
      <path fill="#778FF4" d="M18.0605543 23.3901196C17.5205543 23.3901196 17.0822935 23.8283804 17.0822935 24.3683804 17.0822935 24.9083804 17.5205543 25.3466413 18.0605543 25.3466413L20.0160978 25.3466413C20.5560978 25.3466413 20.9943587 24.9083804 20.9943587 24.3683804 20.9943587 23.8283804 20.5560978 23.3901196 20.0160978 23.3901196L18.0605543 23.3901196zM26.8696957 25.3466413C27.4096957 25.3466413 27.8479565 24.9083804 27.8479565 24.3683804 27.8479565 23.8283804 27.4096957 23.3901196 26.8696957 23.3901196L24.9141522 23.3901196C24.3741522 23.3901196 23.9358913 23.8283804 23.9358913 24.3683804 23.9358913 24.9083804 24.3741522 25.3466413 24.9141522 25.3466413L26.8696957 25.3466413zM35.2140652 17.5635978C36.0250435 17.5635978 36.6814565 16.9062065 36.6814565 16.0962065 36.6814565 15.2852283 36.0250435 14.6288152 35.2140652 14.6288152 34.403087 14.6288152 33.7466739 15.2852283 33.7466739 16.0962065 33.7466739 16.9062065 34.403087 17.5635978 35.2140652 17.5635978M35.2140652 24.4123043C36.0250435 24.4123043 36.6814565 23.754913 36.6814565 22.944913 36.6814565 22.1339348 36.0250435 21.4775217 35.2140652 21.4775217 34.403087 21.4775217 33.7466739 22.1339348 33.7466739 22.944913 33.7466739 23.754913 34.403087 24.4123043 35.2140652 24.4123043M40.1058587 19.5206087C40.1058587 18.7096304 39.4484674 18.0532174 38.6384674 18.0532174 37.8274891 18.0532174 37.1710761 18.7096304 37.1710761 19.5206087 37.1710761 20.3306087 37.8274891 20.988 38.6384674 20.988 39.4484674 20.988 40.1058587 20.3306087 40.1058587 19.5206087M33.2570543 19.5206087C33.2570543 18.7096304 32.6006413 18.0532174 31.789663 18.0532174 30.9786848 18.0532174 30.3222717 18.7096304 30.3222717 19.5206087 30.3222717 20.3306087 30.9786848 20.988 31.789663 20.988 32.6006413 20.988 33.2570543 20.3306087 33.2570543 19.5206087"/>
      <g transform="translate(0 .078)">
        <mask id="b" fill="white">
          <use xlink:href="#a"/>
        </mask>
        <path fill="#778FF4" d="M34.2391304,8.80601087 L26.1332609,8.80601087 C25.5932609,8.80601087 25.155,9.24427174 25.155,9.78427174 C25.155,10.3242717 25.5932609,10.7625326 26.1332609,10.7625326 L34.2391304,10.7625326 C39.0932609,10.7625326 43.0434783,14.71275 43.0434783,19.5668804 L43.0434783,34.6986196 C43.0434783,37.1423152 41.0546739,39.1311196 38.6109783,39.1311196 C37.0633696,39.1311196 35.6077174,38.3064457 34.811413,36.9789457 L32.2219565,32.6648152 C30.9922826,30.6134022 28.7422826,29.3397065 26.351413,29.3397065 L18.6544565,29.3397065 C16.263587,29.3397065 14.013587,30.6134022 12.7829348,32.6648152 L10.1944565,36.9789457 C9.39717391,38.3064457 7.94152174,39.1311196 6.38804348,39.1311196 C3.94434783,39.1311196 1.95652174,37.1423152 1.95652174,34.6986196 L1.95652174,19.5668804 C1.95652174,14.71275 5.90673913,10.7625326 10.7608696,10.7625326 L18.5517391,10.7625326 C21.2488043,10.7625326 23.4430435,8.56829348 23.4430435,5.87122826 L23.4430435,1.87894565 C23.4430435,1.33894565 23.0057609,0.900684783 22.4647826,0.900684783 C21.9247826,0.900684783 21.4865217,1.33894565 21.4865217,1.87894565 L21.4865217,5.87122826 C21.4865217,7.48927174 20.1707609,8.80601087 18.5517391,8.80601087 L10.7608696,8.80601087 C4.82771739,8.80601087 0,13.6337283 0,19.5668804 L0,34.6986196 C0,38.221337 2.86630435,41.0876413 6.3948913,41.0876413 C8.62532609,41.0876413 10.7236957,39.8990543 11.8721739,37.9855761 L14.4606522,33.6714457 C15.3391304,32.2060109 16.946413,31.2962283 18.6544565,31.2962283 L26.351413,31.2962283 C28.0594565,31.2962283 29.6657609,32.2060109 30.5452174,33.6714457 L33.1336957,37.9855761 C34.2811957,39.8990543 36.3805435,41.0876413 38.6119565,41.0876413 C42.1346739,41.0876413 45,38.221337 45,34.6986196 L45,19.5668804 C45,13.6337283 40.1722826,8.80601087 34.2391304,8.80601087" mask="url(#b)"/>
      </g>
      <path fill="#778FF4" d="M9.29778261,23.9231739 C9.83778261,23.9231739 10.2760435,23.484913 10.2760435,22.944913 L10.2760435,20.4992609 L12.7216957,20.4992609 C13.2626739,20.4992609 13.6999565,20.061 13.6999565,19.521 C13.6999565,18.9800217 13.2626739,18.5427391 12.7216957,18.5427391 L10.2760435,18.5427391 L10.2760435,16.0961087 C10.2760435,15.5561087 9.83778261,15.1178478 9.29778261,15.1178478 C8.75778261,15.1178478 8.31952174,15.5561087 8.31952174,16.0961087 L8.31952174,18.5427391 L5.87386957,18.5427391 C5.3328913,18.5427391 4.8956087,18.9800217 4.8956087,19.521 C4.8956087,20.061 5.3328913,20.4992609 5.87386957,20.4992609 L8.31952174,20.4992609 L8.31952174,22.944913 C8.31952174,23.484913 8.75778261,23.9231739 9.29778261,23.9231739"/>
    </g>
    <rect width="45" height="45"/>
  </g>
</svg>
