<svg xmlns="http://www.w3.org/2000/svg" width="90" height="90" viewBox="0 0 90 90" xmlns:xlink="http://www.w3.org/1999/xlink">
  <defs>
    <polygon id="a" points="0 0 59.587 0 59.587 80.177 0 80.177 0 0"/>
  </defs>
  <g fill="none" fill-rule="evenodd">
    <g transform="translate(15 5)">
      <mask id="b" fill="white">
        <use xlink:href="#a"/>
      </mask>
      <path fill="#7289da" d="M40.3989,64.9196 L19.2249,64.9196 C18.5439,64.9196 17.9819,64.4326 17.8269,63.7696 C16.1139,56.4356 9.3139,49.2316 5.8199,45.9196 C5.3569,45.4816 5.2499,44.7986 5.5449,44.2326 L24.5029,6.5056 C24.7459,6.0226 25.2399,5.7176 25.7799,5.7176 L26.2249,5.7176 C27.0149,5.7176 27.6539,6.3576 27.6539,7.1476 L27.6539,37.1546 C27.6539,37.7106 27.3359,38.2256 26.8259,38.4456 C22.7189,40.2236 20.4829,45.5086 24.1229,50.5606 C24.2219,50.6986 24.3509,50.8296 24.4879,50.9306 C30.6069,55.4466 37.3079,51.1446 37.3079,45.3036 C37.3079,42.2156 35.4219,39.5846 32.7499,38.4376 C32.2469,38.2206 31.9419,37.7006 31.9419,37.1526 L31.9419,7.1476 C31.9419,6.3576 32.5819,5.7176 33.3709,5.7176 L33.8159,5.7176 C34.3559,5.7176 34.8499,6.0226 35.0919,6.5056 L54.0689,44.2656 C54.3609,44.8256 54.2579,45.5016 53.8049,45.9406 C50.3439,49.2926 43.5359,56.6106 41.7869,63.7886 C41.6279,64.4416 41.0709,64.9196 40.3989,64.9196 M35.0009,-0.0004 L24.5949,-0.0004 C24.0619,-0.0004 23.5729,0.2966 23.3269,0.7696 L0.1619,45.2896 C-0.1261,45.8446 -0.0221,46.5236 0.4209,46.9626 C3.3599,49.8736 13.9389,60.7876 13.9389,67.0636 L13.9389,67.7776 C13.9389,68.5666 14.5789,69.2076 15.3679,69.2076 L49.2349,69.2076 C50.0239,69.2076 50.6639,69.8476 50.6639,70.6366 L50.6639,74.4606 C50.6639,75.2496 50.0239,75.8896 49.2349,75.8896 L10.3609,75.8896 C9.5709,75.8896 8.9319,75.2496 8.9319,74.4606 L8.9319,68.4926 C8.9319,67.7036 8.2919,67.0636 7.5029,67.0636 L6.0729,67.0636 C5.2839,67.0636 4.6439,67.7036 4.6439,68.4926 L4.6439,78.7476 C4.6439,79.5376 5.2839,80.1776 6.0729,80.1776 L53.5229,80.1776 C54.3119,80.1776 54.9519,79.5376 54.9519,78.7476 L54.9519,66.3496 C54.9519,65.5596 54.3119,64.9196 53.5229,64.9196 L47.8559,64.9196 C46.8429,64.9196 46.1589,63.9036 46.5249,62.9596 C48.5699,57.6856 56.6619,49.4166 59.1689,46.9346 C59.6129,46.4936 59.7119,45.8216 59.4229,45.2666 L36.2689,0.7696 C36.0229,0.2966 35.5339,-0.0004 35.0009,-0.0004" mask="url(#b)"/>
    </g>
    <rect width="90" height="90"/>
  </g>
</svg>
