<svg xmlns="http://www.w3.org/2000/svg" width="45" height="45" viewBox="0 0 45 45" xmlns:xlink="http://www.w3.org/1999/xlink">
  <defs>
    <polygon id="a" points="0 22.308 0 0 43.038 0 43.038 22.308 43.038 44.616 0 44.616 0 22.308"/>
  </defs>
  <g fill="none" fill-rule="evenodd">
    <g transform="translate(1)">
      <mask id="b" fill="white">
        <use xlink:href="#a"/>
      </mask>
      <path fill="#778FF4" d="M0.97826087,44.6162283 L14.1818478,44.6162283 C14.7218478,44.6162283 15.1601087,44.1779674 15.1601087,43.6379674 L15.1601087,34.0382935 C15.1601087,30.5322065 18.0136957,27.6795978 21.5197826,27.6795978 C25.0258696,27.6795978 27.8775,30.5322065 27.8775,34.0382935 L27.8775,43.6379674 C27.8775,44.1779674 28.3157609,44.6162283 28.8557609,44.6162283 L42.0593478,44.6162283 C42.5993478,44.6162283 43.0376087,44.1779674 43.0376087,43.6379674 L43.0376087,11.3670978 C43.0376087,10.8270978 42.5993478,10.388837 42.0593478,10.388837 L34.2332609,10.388837 C33.6922826,10.388837 33.255,10.8270978 33.255,11.3670978 L33.255,17.2425326 L29.3419565,17.2425326 L29.3419565,11.3670978 C29.3419565,10.8270978 28.9036957,10.388837 28.3636957,10.388837 L24.5122826,10.388837 L24.5122826,2.79361957 L27.8393478,4.98198913 L26.6370652,5.97003261 C26.2203261,6.31340217 26.1606522,6.92970652 26.5030435,7.34644565 C26.6967391,7.58220652 26.9775,7.70351087 27.2592391,7.70351087 C27.4783696,7.70351087 27.6984783,7.6301413 27.8804348,7.48144565 L30.1069565,5.64916304 C30.3466304,5.45155435 30.4786957,5.15220652 30.4620652,4.84209783 C30.446413,4.53101087 30.2830435,4.24731522 30.0228261,4.07709783 L24.0720652,0.161119565 C24.0476087,0.14448913 24.0182609,0.142532609 23.9918478,0.128836957 C23.9331522,0.0975326087 23.8734783,0.0750326087 23.808913,0.0554673913 C23.7453261,0.0368804348 23.6846739,0.0231847826 23.621087,0.0173152174 C23.5907609,0.0143804348 23.5643478,-0.000293478261 23.5340217,-0.000293478261 C23.4997826,-0.000293478261 23.4704348,0.0163369565 23.4371739,0.0192717391 C23.3716304,0.0261195652 23.3109783,0.0388369565 23.2473913,0.0584021739 C23.1867391,0.0769891304 23.1309783,0.0994891304 23.0752174,0.129815217 C23.021413,0.158184783 22.9734783,0.191445652 22.9255435,0.230576087 C22.8727174,0.273619565 22.8277174,0.319597826 22.7846739,0.371445652 C22.7641304,0.397858696 22.7357609,0.412532609 22.7171739,0.439923913 C22.7005435,0.465358696 22.698587,0.494706522 22.683913,0.521119565 C22.653587,0.577858696 22.631087,0.637532609 22.6115217,0.701119565 C22.5929348,0.765684783 22.5782609,0.828293478 22.5723913,0.894815217 C22.5704348,0.923184783 22.5557609,0.948619565 22.5557609,0.977967391 L22.5557609,11.3670978 C22.5557609,11.9070978 22.9940217,12.3453587 23.5340217,12.3453587 L27.3854348,12.3453587 L27.3854348,18.2207935 C27.3854348,18.7607935 27.8236957,19.1990543 28.3636957,19.1990543 L34.2332609,19.1990543 C34.7732609,19.1990543 35.2115217,18.7607935 35.2115217,18.2207935 L35.2115217,12.3453587 L41.081087,12.3453587 L41.081087,42.6597065 L29.8340217,42.6597065 L29.8340217,34.0382935 C29.8340217,29.4531848 26.103913,25.7230761 21.5178261,25.7230761 C16.9336957,25.7230761 13.203587,29.4531848 13.203587,34.0382935 L13.203587,42.6597065 L1.95652174,42.6597065 L1.95652174,12.3453587 L7.82608696,12.3453587 L7.82608696,18.2207935 C7.82608696,18.7607935 8.26434783,19.1990543 8.80434783,19.1990543 L14.673913,19.1990543 C15.213913,19.1990543 15.6521739,18.7607935 15.6521739,18.2207935 L15.6521739,12.3453587 L18.7023913,12.3453587 C19.2423913,12.3453587 19.6806522,11.9070978 19.6806522,11.3670978 C19.6806522,10.8270978 19.2423913,10.388837 18.7023913,10.388837 L14.673913,10.388837 C14.133913,10.388837 13.6956522,10.8270978 13.6956522,11.3670978 L13.6956522,17.2425326 L9.7826087,17.2425326 L9.7826087,11.3670978 C9.7826087,10.8270978 9.34532609,10.388837 8.80434783,10.388837 L0.97826087,10.388837 C0.43826087,10.388837 0,10.8270978 0,11.3670978 L0,43.6379674 C0,44.1779674 0.43826087,44.6162283 0.97826087,44.6162283" mask="url(#b)"/>
    </g>
    <rect width="45" height="45"/>
  </g>
</svg>
